<?xml version="1.0" encoding="UTF-8"?>
<svg version="1.1" xmlns="http://www.w3.org/2000/svg" width="1024" height="1024">
<path d="M0 0 C0.98234619 0.04439209 1.96469238 0.08878418 2.97680664 0.13452148 C11.59345684 0.53251434 20.203876 1.0194056 28.8125 1.5625 C28.8125 2.2225 28.8125 2.8825 28.8125 3.5625 C29.5972168 3.59770752 30.38193359 3.63291504 31.19042969 3.66918945 C39.46263744 4.15661942 47.07781988 5.57898085 55.0625 7.75 C56.24634277 8.06678711 57.43018555 8.38357422 58.64990234 8.70996094 C92.21494016 17.84698284 123.69002878 33.10979366 151.8125 53.5625 C152.43479492 54.01367188 153.05708984 54.46484375 153.69824219 54.9296875 C160.90276533 60.19836924 167.58945537 65.92807048 174.09375 72.02734375 C176.39828234 74.17625393 178.73603963 76.25891291 181.125 78.3125 C190.43479366 86.41048168 198.25374786 95.79663971 206.0625 105.3125 C206.97902344 106.42431641 206.97902344 106.42431641 207.9140625 107.55859375 C221.7623634 124.40030467 232.53378384 143.87844234 241.8125 163.5625 C242.31007813 164.6040625 242.80765625 165.645625 243.3203125 166.71875 C267.51288388 220.12748682 273.68764556 283.24258034 258.39624023 339.95117188 C257.66706186 342.76714611 257.66706186 342.76714611 257.8125 346.5625 C257.1525 346.5625 256.4925 346.5625 255.8125 346.5625 C255.7000293 347.11067383 255.58755859 347.65884766 255.47167969 348.22363281 C247.03490841 387.90520034 222.55020094 424.25401651 200.26855469 457.39453125 C197.98233469 460.79856102 195.71048157 464.21212319 193.4375 467.625 C192.43622532 469.12632036 191.43492127 470.62762113 190.43359375 472.12890625 C188.04127404 475.71704139 185.65187498 479.30710497 183.26394653 482.89816284 C172.73212044 498.73460637 162.14861303 514.53395514 151.47857666 530.27764893 C143.45698231 542.11428039 135.4940866 553.98781044 127.58300781 565.89868164 C124.33176202 570.79034503 121.07147625 575.67598504 117.8125 580.5625 C116.94006928 581.87107049 116.06766766 583.17966038 115.1953125 584.48828125 C111.875 589.46875 108.5546875 594.44921875 105.234375 599.4296875 C104.81269043 600.06221436 104.39100586 600.69474121 103.95654297 601.34643555 C102.69759115 603.23486328 101.43863932 605.12329102 100.1796875 607.01171875 C99.57979004 607.91156494 99.57979004 607.91156494 98.96777344 608.82958984 C93.09602865 617.63720703 87.22428385 626.44482422 81.35253906 635.25244141 C80.84432617 636.01476074 80.33611328 636.77708008 79.8125 637.5625 C69.14583333 653.5625 58.47916667 669.5625 47.8125 685.5625 C47.18537109 686.50319336 46.55824219 687.44388672 45.91210938 688.41308594 C39.7273763 697.69018555 33.54264323 706.96728516 27.35791016 716.24438477 C26.96651855 716.83147217 26.57512695 717.41855957 26.171875 718.0234375 C25.38541667 719.203125 24.59895833 720.3828125 23.8125 721.5625 C23.40580078 722.17254883 22.99910156 722.78259766 22.58007812 723.41113281 C22.16693359 724.03084961 21.75378906 724.65056641 21.328125 725.2890625 C20.91353027 725.91103516 20.49893555 726.53300781 20.07177734 727.17382812 C19.23386179 728.43053901 18.39564674 729.68705027 17.55712891 730.94335938 C15.49192947 734.03834052 13.43182963 737.13646532 11.3828125 740.2421875 C9.32968913 743.35105026 7.2581732 746.44697557 5.17480469 749.53564453 C4.21201446 750.96809694 3.25487009 752.40435175 2.30175781 753.84326172 C0.73766259 756.19813167 -0.84765517 758.53745832 -2.4375 760.875 C-2.9207373 761.61089355 -3.40397461 762.34678711 -3.90185547 763.10498047 C-6.22967428 766.48474069 -7.62055071 768.2918007 -11.39453125 770.09375 C-14.1875 770.5625 -14.1875 770.5625 -16.625 769.75 C-19.80349944 767.03664682 -22.15554748 763.97150019 -24.63671875 760.62109375 C-26.16739872 758.48972094 -26.16739872 758.48972094 -28.1875 756.5625 C-29.29741262 754.70311029 -30.37653751 752.82524858 -31.4375 750.9375 C-34.82655697 745.05087077 -38.36541159 739.38458841 -43.1875 734.5625 C-43.49276611 733.79236572 -43.79803223 733.02223145 -44.11254883 732.22875977 C-45.24044263 729.43118353 -46.61423688 727.336505 -48.38671875 724.90234375 C-52.08093436 719.73806867 -55.55460822 714.4574238 -59 709.125 C-64.50308148 700.64705634 -70.06808338 692.21375022 -75.6875 683.8125 C-82.78351536 673.20208013 -89.81089911 662.54793566 -96.8125 651.875 C-105.34208538 638.87432752 -113.92011942 625.90848157 -122.56689453 612.98535156 C-124.86112259 609.55541495 -127.1494943 606.12158897 -129.4375 602.6875 C-130.21350421 601.52341253 -130.98954567 600.35934989 -131.765625 599.1953125 C-148.75 573.71875 -148.75 573.71875 -149.97827148 571.87597656 C-150.7794152 570.67450361 -151.58100469 569.47332778 -152.38305664 568.27246094 C-154.72337883 564.76691703 -157.05180166 561.25387475 -159.37109375 557.734375 C-159.91185547 556.91646484 -160.45261719 556.09855469 -161.00976562 555.25585938 C-162.06469062 553.66007803 -163.11689796 552.06249588 -164.16601562 550.46289062 C-164.8862793 549.37524414 -164.8862793 549.37524414 -165.62109375 548.265625 C-166.04447021 547.62270508 -166.46784668 546.97978516 -166.90405273 546.31738281 C-168.73102447 543.81932825 -170.40604684 541.95322658 -173.1875 540.5625 C-173.32679932 539.82435059 -173.46609863 539.08620117 -173.60961914 538.32568359 C-174.2942062 535.05227574 -175.55553536 533.11141521 -177.43359375 530.3515625 C-178.10092529 529.36188477 -178.76825684 528.37220703 -179.45581055 527.35253906 C-180.52955933 525.78584473 -180.52955933 525.78584473 -181.625 524.1875 C-182.35565674 523.10694336 -183.08631348 522.02638672 -183.83911133 520.91308594 C-185.29521455 518.75992744 -186.75437795 516.60883483 -188.21679688 514.45996094 C-190.62211898 510.9234938 -193.00422972 507.37218335 -195.375 503.8125 C-195.7565625 503.24152588 -196.138125 502.67055176 -196.53125 502.08227539 C-199.94467979 496.96141958 -203.28236025 491.79222477 -206.625 486.625 C-210.66784233 480.37880267 -214.76880138 474.18279868 -219 468.0625 C-219.45656982 467.40193604 -219.91313965 466.74137207 -220.38354492 466.06079102 C-221.25696009 464.79820052 -222.13056754 463.53574301 -223.00439453 462.2734375 C-229.69166753 452.60269685 -235.90846212 442.66499543 -242.08496094 432.66210938 C-242.7143457 431.64697266 -243.34373047 430.63183594 -243.9921875 429.5859375 C-244.55921387 428.66731934 -245.12624023 427.74870117 -245.71044922 426.80224609 C-247.13083792 424.48515288 -247.13083792 424.48515288 -249.1875 422.5625 C-250.47983425 420.09716867 -251.72295826 417.6281269 -252.9375 415.125 C-255.85225038 409.18719889 -258.88824917 403.35532992 -262.15625 397.6015625 C-263.1875 395.5625 -263.1875 395.5625 -263.1875 393.5625 C-263.8475 393.2325 -264.5075 392.9025 -265.1875 392.5625 C-265.1875 391.5725 -265.1875 390.5825 -265.1875 389.5625 C-265.8475 389.2325 -266.5075 388.9025 -267.1875 388.5625 C-267.89956579 386.57821001 -268.55276518 384.57286219 -269.1875 382.5625 C-269.78807035 381.00934791 -270.40251977 379.46152347 -271.02734375 377.91796875 C-271.36830078 377.07556641 -271.70925781 376.23316406 -272.06054688 375.36523438 C-272.76553531 373.63316187 -273.47125478 371.90138671 -274.17773438 370.16992188 C-280.1875 355.30961629 -280.1875 355.30961629 -280.1875 350.5625 C-281.1775 350.5625 -282.1675 350.5625 -283.1875 350.5625 C-282.8575 349.5725 -282.5275 348.5825 -282.1875 347.5625 C-282.57314913 344.94593572 -282.57314913 344.94593572 -283.33203125 342.0390625 C-283.59693359 340.93433594 -283.86183594 339.82960938 -284.13476562 338.69140625 C-284.42029297 337.53511719 -284.70582031 336.37882812 -285 335.1875 C-290.6745993 312.03513487 -290.6745993 312.03513487 -290.1875 301.5625 C-290.8475 301.2325 -291.5075 300.9025 -292.1875 300.5625 C-292.54237487 273.53468429 -291.80718776 247.11216361 -286.1875 220.5625 C-285.91009953 219.16537584 -285.63275237 217.7682411 -285.35546875 216.37109375 C-281.20986516 196.46007489 -274.15596108 176.79490278 -265.1875 158.5625 C-264.64536865 157.44367432 -264.64536865 157.44367432 -264.09228516 156.30224609 C-254.26773029 136.2094468 -241.46049363 118.30663793 -227.26953125 101.09375 C-226.02629578 99.58227424 -224.79140314 98.0637824 -223.57421875 96.53125 C-222.48818993 95.17291307 -221.34508399 93.8603972 -220.1875 92.5625 C-219.5275 92.5625 -218.8675 92.5625 -218.1875 92.5625 C-217.8016272 91.68984497 -217.8016272 91.68984497 -217.40795898 90.79956055 C-216.0790227 88.36366474 -214.61635569 86.73271622 -212.66015625 84.76953125 C-211.60368896 83.70702148 -211.60368896 83.70702148 -210.52587891 82.62304688 C-209.77483887 81.88119141 -209.02379883 81.13933594 -208.25 80.375 C-207.48091309 79.61123047 -206.71182617 78.84746094 -205.91943359 78.06054688 C-200.26638343 72.50110203 -194.45553552 67.42070382 -188.1875 62.5625 C-186.18288936 60.94319114 -184.18287047 59.31818135 -182.1875 57.6875 C-181.300625 56.96820313 -180.41375 56.24890625 -179.5 55.5078125 C-177.2474742 53.68391157 -177.2474742 53.68391157 -175.625 51.9296875 C-173.94557758 50.33241075 -172.261682 49.59238652 -170.1875 48.5625 C-168.92969049 47.78158271 -167.68399304 46.98091562 -166.44921875 46.1640625 C-135.79116422 26.16553581 -95.77449052 4.79907737 -58.20703125 3.80078125 C-57.54058594 3.72214844 -56.87414062 3.64351562 -56.1875 3.5625 C-55.8575 2.9025 -55.5275 2.2425 -55.1875 1.5625 C-52.3269043 1.15185547 -52.3269043 1.15185547 -48.51171875 0.9296875 C-47.83132034 0.88812531 -47.15092194 0.84656311 -46.4499054 0.80374146 C-44.99998856 0.71701842 -43.54978663 0.63495874 -42.09936523 0.55712891 C-39.92165154 0.44000897 -37.74512229 0.30930063 -35.56835938 0.17578125 C-23.67915428 -0.52956042 -11.89584672 -0.56027797 0 0 Z M-127.7109375 154.96875 C-129.81374777 157.17106234 -131.09159982 158.76333327 -132.1875 161.5625 C-132.8475 161.5625 -133.5075 161.5625 -134.1875 161.5625 C-135.82452241 163.42164627 -137.3257933 165.27507512 -138.8125 167.25 C-139.48128174 168.1330481 -139.48128174 168.1330481 -140.16357422 169.03393555 C-169.06380935 207.77221931 -177.77982696 256.25981075 -171.1875 303.5625 C-170.11898697 309.6258962 -168.70181222 315.59702764 -167.1875 321.5625 C-167.03152344 322.23152344 -166.87554687 322.90054688 -166.71484375 323.58984375 C-165.86621907 326.76432866 -164.83749628 329.8792524 -163.8125 333 C-163.49925781 333.98323242 -163.49925781 333.98323242 -163.1796875 334.98632812 C-161.90449425 338.86244906 -160.29778807 342.0923739 -158.1875 345.5625 C-157.72537109 346.96628906 -157.72537109 346.96628906 -157.25390625 348.3984375 C-151.63661305 365.06513162 -139.11432019 379.05720351 -127.1875 391.5625 C-126.39730469 392.41714844 -125.60710937 393.27179688 -124.79296875 394.15234375 C-105.6966796 414.19869704 -75.86258577 431.02048396 -48.03125 434.0703125 C-44.1875 434.5625 -44.1875 434.5625 -41.44140625 435.55078125 C-8.23000077 445.87701657 35.57627057 436.08571817 65.63671875 420.81640625 C78.44865801 414.03565773 89.80576773 405.02166431 99.8125 394.5625 C100.59625 393.799375 101.38 393.03625 102.1875 392.25 C103.486875 390.9196875 103.486875 390.9196875 104.8125 389.5625 C105.43511719 388.95921875 106.05773437 388.3559375 106.69921875 387.734375 C130.53577588 363.25589981 143.93097867 323.53109768 143.98046875 289.79296875 C143.98379715 288.99014969 143.98712555 288.18733063 143.99055481 287.36018372 C143.99558056 285.67868619 143.9979645 283.99717885 143.99780273 282.31567383 C144.00000892 279.73958276 144.01826346 277.16390727 144.03710938 274.58789062 C144.04004027 272.94791812 144.0420271 271.3079436 144.04296875 269.66796875 C144.05374702 268.51484444 144.05374702 268.51484444 144.06474304 267.33842468 C144.04838356 263.53801725 143.9730455 261.80331825 141.8125 258.5625 C139.05708512 258.11335518 139.05708512 258.11335518 135.76351929 258.20173645 C134.47340439 258.19761246 133.18328949 258.19348846 131.8540802 258.1892395 C130.41622718 258.19985769 128.97837625 258.21076213 127.54052734 258.22192383 C126.03286252 258.22276966 124.52519645 258.22229582 123.01753235 258.22059631 C118.91643439 258.2197332 114.81559799 258.23740982 110.71456099 258.25831819 C106.43176049 258.27703253 102.14895445 258.27883128 97.86611938 258.28239441 C89.75232985 258.29173033 81.63866113 258.31636497 73.52492487 258.34644288 C64.28927922 258.37993884 55.0536279 258.39646079 45.81793666 258.41152918 C26.81604196 258.44291326 7.81431295 258.49794455 -11.1875 258.5625 C-11.1875 276.3825 -11.1875 294.2025 -11.1875 312.5625 C3.99999747 312.7404514 3.99999747 312.7404514 19.1875 312.91796875 C25.38086096 312.99026273 31.57422129 313.06260778 37.76757812 313.13525391 C42.76016253 313.19381217 47.75274954 313.25214396 52.74533844 313.31031799 C54.65113672 313.33256445 56.55693405 313.35489284 58.46273041 313.37730408 C61.12977353 313.40865329 63.79681988 313.43971253 66.46386719 313.47070312 C67.2536496 313.48005386 68.04343201 313.4894046 68.85714722 313.4990387 C72.1759712 313.53733864 75.49339174 313.5625 78.8125 313.5625 C76.55217048 330.12525938 68.76623252 344.77044291 57.31640625 356.78515625 C55.59718592 358.42892269 55.59718592 358.42892269 55.8125 360.5625 C54.93271484 360.97242188 54.93271484 360.97242188 54.03515625 361.390625 C51.87330763 362.53043974 50.15099069 363.78513815 48.25 365.3125 C34.86931329 375.42780812 19.47691554 380.58956574 3.06640625 383.01953125 C-0.031209 383.21251574 -0.031209 383.21251574 -1.1875 384.5625 C-15.19284326 384.6269782 -28.91801715 382.2305102 -42.2578125 378.14550781 C-43.96320065 377.63026655 -45.68398211 377.16658604 -47.40625 376.7109375 C-52.28697601 375.40462554 -55.37032847 373.98816675 -59.1875 370.5625 C-60.65581077 369.56712828 -62.13622222 368.58949059 -63.625 367.625 C-66.44214139 365.77977239 -69.07837381 363.890831 -71.625 361.6875 C-73.8892579 359.34972138 -73.8892579 359.34972138 -76.1875 359.5625 C-76.1875 358.9025 -76.1875 358.2425 -76.1875 357.5625 C-77.3046845 356.41040349 -78.4289167 355.26468653 -79.578125 354.14453125 C-90.16352274 343.7389825 -97.65712867 331.30769297 -103.1875 317.5625 C-103.4261377 316.97001465 -103.66477539 316.3775293 -103.91064453 315.76708984 C-105.79566747 310.93901413 -107.16273782 306.1122555 -108.3125 301.0625 C-108.48136719 300.35480469 -108.65023437 299.64710938 -108.82421875 298.91796875 C-112.62041234 282.56743415 -112.93942351 263.95371585 -109.1875 247.5625 C-108.878125 246.19544922 -108.878125 246.19544922 -108.5625 244.80078125 C-101.95360698 218.47786075 -86.62935178 193.72796811 -63.15112305 179.41064453 C-61.50685028 178.44358802 -59.8475614 177.50219536 -58.1875 176.5625 C-57.36121094 176.07394531 -56.53492188 175.58539063 -55.68359375 175.08203125 C-35.6001856 164.03785587 -7.91498071 161.84331691 14.00219727 167.65600586 C30.94918765 172.69384358 45.06175805 181.30547365 57.8125 193.5625 C58.55757812 194.26761719 59.30265625 194.97273438 60.0703125 195.69921875 C63.89272244 199.40173761 67.07265351 202.99608918 69.8125 207.5625 C73.76801229 206.96032154 76.74206128 205.72992714 80.25 203.82421875 C81.3006665 203.25670898 82.35133301 202.68919922 83.43383789 202.10449219 C84.54879639 201.49250977 85.66375488 200.88052734 86.8125 200.25 C87.95775146 199.62641602 89.10300293 199.00283203 90.28295898 198.36035156 C97.84489138 194.23437257 105.37613984 190.05198717 112.875 185.8125 C113.76638672 185.31194092 114.65777344 184.81138184 115.57617188 184.2956543 C116.38763672 183.83199463 117.19910156 183.36833496 118.03515625 182.890625 C118.74422119 182.4874707 119.45328613 182.08431641 120.18383789 181.66894531 C121.97401243 180.64658833 121.97401243 180.64658833 122.8125 178.5625 C99.60557545 143.95568269 62.62563536 121.02363073 22.21484375 112.53515625 C-32.68777659 102.28080634 -87.03516206 116.76596674 -127.7109375 154.96875 Z " fill="#004680" transform="translate(525.1875,126.4375)"/>
<path d="M0 0 C51.81 0 103.62 0 157 0 C158.02613983 4.10455933 158.03489477 7.65615125 157.87890625 11.828125 C157.85529526 12.57713074 157.83168427 13.32613647 157.80735779 14.09783936 C157.73099344 16.48209888 157.64685283 18.86601105 157.5625 21.25 C157.50925201 22.86977486 157.4565118 24.48956651 157.40429688 26.109375 C157.27541537 30.07313521 157.13956072 34.03660201 157 38 C156.67 38 156.34 38 156 38 C155.97494385 36.9805127 155.9498877 35.96102539 155.92407227 34.91064453 C155.83002996 31.13479646 155.72980163 27.35913373 155.62768555 23.58349609 C155.58432462 21.94812347 155.54265039 20.31270523 155.50268555 18.67724609 C155.44501088 16.32896159 155.38130871 13.98090696 155.31640625 11.6328125 C155.29133751 10.53273361 155.29133751 10.53273361 155.26576233 9.41043091 C155.21362038 5.57797692 155.21362038 5.57797692 154 2 C103.51 1.67 53.02 1.34 1 1 C1 18.82 1 36.64 1 55 C24.43 55 47.86 55 72 55 C72 55.33 72 55.66 72 56 C48.24 56 24.48 56 0 56 C0 37.52 0 19.04 0 0 Z " fill="#2C6795" transform="translate(513,384)"/>
<path d="M0 0 C0.495 1.485 0.495 1.485 1 3 C-0.30078125 5.390625 -0.30078125 5.390625 -2.3125 8.25 C-3.42431641 9.85681641 -3.42431641 9.85681641 -4.55859375 11.49609375 C-4.95804199 12.0669873 -5.35749023 12.63788086 -5.76904297 13.22607422 C-7.84975586 16.22457876 -9.85800777 19.27094079 -11.875 22.3125 C-12.72361851 23.58616398 -13.57258039 24.85959925 -14.421875 26.1328125 C-14.84662109 26.76993164 -15.27136719 27.40705078 -15.70898438 28.06347656 C-16.99869792 29.99804688 -18.28841146 31.93261719 -19.578125 33.8671875 C-19.99980957 34.49971436 -20.42149414 35.13224121 -20.85595703 35.78393555 C-22.11490885 37.67236328 -23.37386068 39.56079102 -24.6328125 41.44921875 C-25.23270996 42.34906494 -25.23270996 42.34906494 -25.84472656 43.26708984 C-31 51 -31 51 -32.91796875 53.86328125 C-34.50004854 56.24678983 -36.06216541 58.63944297 -37.61328125 61.04296875 C-38.28520508 62.07454102 -38.28520508 62.07454102 -38.97070312 63.12695312 C-39.84972235 64.47682981 -40.72237805 65.83087673 -41.58789062 67.18945312 C-44.66207252 71.88735751 -44.66207252 71.88735751 -48 73 C-46.33494701 68.01652776 -43.48667855 63.9678708 -40.57421875 59.6484375 C-40.03078323 58.83492828 -39.48734772 58.02141907 -38.92744446 57.18325806 C-37.18509859 54.5775955 -35.4362986 51.9763349 -33.6875 49.375 C-32.55363532 47.67995576 -31.42016818 45.98464553 -30.28710938 44.2890625 C-20.34210899 29.42556569 -10.32399196 14.6037559 0 0 Z " fill="#1C4066" transform="translate(650,692)"/>
<path d="M0 0 C0.495 1.485 0.495 1.485 1 3 C-0.38706493 5.51657643 -1.82639809 7.81834587 -3.4375 10.1875 C-3.92758545 10.92581055 -4.4176709 11.66412109 -4.92260742 12.42480469 C-6.01315686 14.06474381 -7.10857335 15.70145343 -8.20800781 17.33544922 C-10.08374294 20.12451914 -11.94546248 22.92255638 -13.8046875 25.72265625 C-17.18447318 30.80875361 -20.57558348 35.8871814 -23.97021484 40.96337891 C-27.19314165 45.78497664 -30.4088767 50.61136273 -33.625 55.4375 C-36.88292715 60.32462705 -36.88292715 60.32462705 -38.45800781 62.67529297 C-39.53936463 64.30554623 -40.60514661 65.94618715 -41.65917969 67.59423828 C-42.19188477 68.42036621 -42.72458984 69.24649414 -43.2734375 70.09765625 C-43.74958496 70.84668213 -44.22573242 71.59570801 -44.71630859 72.36743164 C-45.13992676 72.9061792 -45.56354492 73.44492676 -46 74 C-46.66 74 -47.32 74 -48 74 C-46.73148407 70.59378081 -45.27564476 67.65905724 -43.26953125 64.63134766 C-42.72135742 63.7992276 -42.17318359 62.96710754 -41.60839844 62.10977173 C-41.01575195 61.22018768 -40.42310547 60.33060364 -39.8125 59.4140625 C-38.88679199 58.0130983 -38.88679199 58.0130983 -37.94238281 56.58383179 C-35.96581142 53.59473432 -33.98298605 50.60984479 -32 47.625 C-30.69620599 45.6552183 -29.39281647 43.68516881 -28.08984375 41.71484375 C-24.40019539 36.13859125 -20.70159796 30.56832521 -17 25 C-16.22586761 23.83469254 -16.22586761 23.83469254 -15.43609619 22.64584351 C-14.06501602 20.5823406 -12.69295492 18.51949519 -11.3203125 16.45703125 C-10.93560791 15.87833282 -10.55090332 15.2996344 -10.15454102 14.70339966 C-6.85012687 9.74557745 -3.45105918 4.85662302 0 0 Z " fill="#1A3A5F" transform="translate(599,768)"/>
<path d="M0 0 C4.11725493 3.54253513 6.20460967 7.77306234 8.6875 12.5 C17.86245188 29.42716801 30.93762243 45.39933214 46.0625 57.4375 C46.701875 57.953125 47.34125 58.46875 48 59 C48 59.66 48 60.32 48 61 C39.11440913 57.0462242 32.05580488 49.41177858 26 42 C25.24203125 41.14019531 24.4840625 40.28039062 23.703125 39.39453125 C0 12.12121506 0 12.12121506 0 0 Z " fill="#143E68" transform="translate(365,472)"/>
<path d="M0 0 C5.56527629 4.01074523 10.70699487 8.28558602 15.6875 13 C16.37739014 13.65154053 17.06728027 14.30308105 17.77807617 14.97436523 C26.87432396 23.64748301 35.37385016 32.76552743 43.25 42.5625 C43.71639893 43.13427979 44.18279785 43.70605957 44.66333008 44.29516602 C47.14996671 47.46900489 48.60838449 49.95581676 49 54 C43.30184165 48.65797655 38.69669344 42.43305992 33.8828125 36.3046875 C30.44319433 31.95649095 27.02984021 27.82318174 23 24 C21.89498228 22.87583593 20.79089287 21.75075894 19.6875 20.625 C15.32908647 16.26658647 10.80647565 11.97873676 5.76171875 8.421875 C5.18035156 7.95265625 4.59898437 7.4834375 4 7 C4 6.34 4 5.68 4 5 C2.68 4.34 1.36 3.68 0 3 C0 2.01 0 1.02 0 0 Z " fill="#1B426A" transform="translate(689,190)"/>
<path d="M0 0 C0.66 0 1.32 0 2 0 C3.35278115 1.98689731 4.68568305 3.98745218 6 6 C6.66 6.33 7.32 6.66 8 7 C8.73396046 8.69194464 9.46331781 10.38618786 10.15859985 12.09439087 C11.44268404 15.00259402 13.17303781 17.53752241 14.94921875 20.16796875 C15.32552933 20.72889725 15.7018399 21.28982574 16.08955383 21.86775208 C17.28343199 23.64473611 18.48520884 25.41620035 19.6875 27.1875 C20.47385016 28.35445208 21.25966116 29.52176766 22.04492188 30.68945312 C22.82547571 31.84898871 23.60607445 33.00849407 24.38671875 34.16796875 C24.76939911 34.73643524 25.15207947 35.30490173 25.5463562 35.89059448 C27.47223631 38.7476179 29.40869291 41.59633753 31.36572266 44.43212891 C32.09710449 45.50253418 32.82848633 46.57293945 33.58203125 47.67578125 C34.56973511 49.10724487 34.56973511 49.10724487 35.57739258 50.56762695 C37 53 37 53 37 56 C35.86499306 55.11687962 34.74238693 54.21781145 33.625 53.3125 C32.99851562 52.81363281 32.37203125 52.31476562 31.7265625 51.80078125 C29.66654818 49.65221427 29.08298804 47.77198022 28 45 C26.45549692 42.38993483 24.76193029 39.88613509 23.0625 37.375 C22.61970703 36.70726562 22.17691406 36.03953125 21.72070312 35.3515625 C19.30076474 31.70520603 19.30076474 31.70520603 16.41088867 28.43701172 C14.53552186 26.5269219 13.96667027 24.483599 13 22 C11.96310911 20.38587088 10.87658291 18.80285753 9.75 17.25 C9.13511719 16.38761719 8.52023437 15.52523437 7.88671875 14.63671875 C7.26410156 13.76660156 6.64148438 12.89648438 6 12 C4.84439891 10.36101022 3.69782582 8.71559911 2.5625 7.0625 C2.06878906 6.35222656 1.57507813 5.64195312 1.06640625 4.91015625 C0 3 0 3 0 0 Z " fill="#1C3F64" transform="translate(467,834)"/>
<path d="M0 0 C2.98915726 2.81872285 5.26420222 5.68304816 7.5 9.125 C8.54220703 10.71634766 8.54220703 10.71634766 9.60546875 12.33984375 C9.98622559 12.92362793 10.36698242 13.50741211 10.75927734 14.10888672 C12.58391112 16.88999912 14.43854752 19.65078725 16.29003906 22.4140625 C22.62779116 31.87800534 28.83961035 41.4198665 35 51 C34.01 51 33.02 51 32 51 C30.52734375 49.33984375 30.52734375 49.33984375 28.9375 46.9375 C28.32261719 46.0196875 27.70773437 45.101875 27.07421875 44.15625 C26.38972656 43.1146875 25.70523437 42.073125 25 41 C24.23702905 39.86367441 23.47265434 38.72829035 22.70703125 37.59375 C17.63386873 30.05706385 12.6743168 22.44804833 7.75488281 14.81030273 C7.32272461 14.13942627 6.89056641 13.4685498 6.4453125 12.77734375 C6.03442383 12.13651855 5.62353516 11.49569336 5.20019531 10.83544922 C4.41648137 9.63692167 3.61433798 8.45019 2.79199219 7.27783203 C0 3.29575011 0 3.29575011 0 0 Z " fill="#1B3A5F" transform="translate(306,591)"/>
<path d="M0 0 C2.08326131 -0.02709444 4.16662441 -0.04643873 6.25 -0.0625 C7.41015625 -0.07410156 8.5703125 -0.08570313 9.765625 -0.09765625 C12.40977128 -0.01782092 14.49826091 0.21356222 17 1 C17 2.98 17 4.96 17 7 C16.505 5.02 16.505 5.02 16 3 C-13.04 3 -42.08 3 -72 3 C-72 2.67 -72 2.34 -72 2 C-48.24 2 -24.48 2 0 2 C0 1.34 0 0.68 0 0 Z " fill="#053569" transform="translate(586,439)"/>
<path d="M0 0 C9.48946204 4.33308769 17.01750348 12.81642339 24.3125 20.0625 C25.45936279 21.19558594 25.45936279 21.19558594 26.62939453 22.3515625 C39 34.78976691 39 34.78976691 39 39 C35.74618014 37.6233839 34.23760375 36.26707512 32.25 33.375 C24.10556777 22.5274588 13.72731241 12.88107603 2.94140625 4.69921875 C1 3 1 3 0 0 Z " fill="#16406A" transform="translate(609,264)"/>
<path d="M0 0 C0.33 0 0.66 0 1 0 C1.12528076 0.7842334 1.25056152 1.5684668 1.37963867 2.37646484 C1.97180613 6.04441185 2.57504154 9.71039558 3.1875 13.375 C3.29749329 14.03361023 3.40748657 14.69222046 3.52081299 15.37078857 C5.03374328 24.33742757 6.82269866 33.12082824 9.56323242 41.80615234 C11.0920583 46.72382511 11.0920583 46.72382511 10 50 C10 49.34 10 48.68 10 48 C8.68 48 7.36 48 6 48 C6.33 47.01 6.66 46.02 7 45 C6.59795413 42.25220215 6.59795413 42.25220215 5.8203125 39.1953125 C5.55089844 38.05449219 5.28148437 36.91367187 5.00390625 35.73828125 C4.71386719 34.54589844 4.42382812 33.35351562 4.125 32.125 C3.56464295 29.77354736 3.00473041 27.42198874 2.4453125 25.0703125 C2.06656982 23.50434326 2.06656982 23.50434326 1.68017578 21.90673828 C0.4570563 16.67972444 -0.11290846 12.08120489 -0.0625 6.6875 C-0.05347656 5.43324219 -0.04445312 4.17898438 -0.03515625 2.88671875 C-0.01775391 1.45779297 -0.01775391 1.45779297 0 0 Z " fill="#19385C" transform="translate(236,429)"/>
<path d="M0 0 C0.33 0 0.66 0 1 0 C1.05120102 6.4554501 1.08594122 12.9108468 1.10986328 19.36645508 C1.11984844 21.55723019 1.13344125 23.74799223 1.15087891 25.9387207 C1.36453491 53.494061 1.36453491 53.494061 -3 66 C-3.33 66 -3.66 66 -4 66 C-3.5824798 59.78114645 -3.08961206 53.60034292 -2.26464844 47.42089844 C-0.23419359 31.72420873 -0.32426436 15.80459236 0 0 Z " fill="#0B2349" transform="translate(789,385)"/>
<path d="M0 0 C0 3.85918499 -1.02672683 4.45917144 -3.5625 7.3125 C-11.15493878 16.29201895 -17.47004161 26.23800286 -24 36 C-24.81898119 33.68644171 -25.22571594 32.51172106 -24.21484375 30.2199707 C-23.58255859 29.33184692 -23.58255859 29.33184692 -22.9375 28.42578125 C-22.47359863 27.76239746 -22.00969727 27.09901367 -21.53173828 26.41552734 C-21.02626465 25.72152832 -20.52079102 25.0275293 -20 24.3125 C-19.4932373 23.59787598 -18.98647461 22.88325195 -18.46435547 22.14697266 C-14.78344961 16.98808296 -11.00392549 11.91343337 -7 7 C-6.51660156 6.39414063 -6.03320312 5.78828125 -5.53515625 5.1640625 C-2.27366864 1.13683432 -2.27366864 1.13683432 0 0 Z " fill="#163960" transform="translate(298,229)"/>
<path d="M0 0 C1 3 1 3 0.2091217 4.72746277 C-0.43374535 5.67677422 -0.43374535 5.67677422 -1.08959961 6.64526367 C-1.57017319 7.36578415 -2.05074677 8.08630463 -2.54588318 8.82865906 C-3.07601517 9.60063126 -3.60614716 10.37260345 -4.15234375 11.16796875 C-4.68646378 11.96278152 -5.2205838 12.7575943 -5.77088928 13.57649231 C-7.4834811 16.1201381 -9.21024552 18.65379387 -10.9375 21.1875 C-12.09925184 22.90756554 -13.26007152 24.62826107 -14.41992188 26.34960938 C-17.26917244 30.57379942 -20.13117295 34.78908332 -23 39 C-23.495 37.515 -23.495 37.515 -24 36 C-22.88061523 33.7644043 -22.88061523 33.7644043 -21.12109375 31.13671875 C-20.47253418 30.15880371 -19.82397461 29.18088867 -19.15576172 28.17333984 C-18.44436035 27.1261377 -17.73295898 26.07893555 -17 25 C-16.28215332 23.93088379 -15.56430664 22.86176758 -14.82470703 21.76025391 C-12.58319788 18.4355862 -10.32556188 15.12249914 -8.0625 11.8125 C-7.27523461 10.65830952 -6.48812445 9.50401316 -5.70117188 8.34960938 C-3.80229561 5.56536748 -1.90188294 2.78218853 0 0 Z " fill="#1F4268" transform="translate(706,608)"/>
<path d="M0 0 C0 0.33 0 0.66 0 1 C-9.36879536 2.37523602 -18.58546308 3.19423863 -28.0625 3.1875 C-28.92963623 3.18814453 -29.79677246 3.18878906 -30.69018555 3.18945312 C-35.87318149 3.14548285 -40.86999677 2.74132995 -46 2 C-46 1.67 -46 1.34 -46 1 C-30.67589409 -0.2418957 -15.36407828 -0.101915 0 0 Z " fill="#0F3260" transform="translate(542,564)"/>
<path d="M0 0 C0.66 0 1.32 0 2 0 C3.375 2.09765625 3.375 2.09765625 5 5.0625 C7.84313942 10.09449989 10.878703 14.90685347 14.125 19.6875 C17.70953428 24.98151927 21.06922494 30.30812633 24 36 C20.15894273 34.5090633 18.6943437 32.49356811 16.5 29.0625 C15.819375 28.00289062 15.13875 26.94328125 14.4375 25.8515625 C13.86902344 24.95099121 13.86902344 24.95099121 13.2890625 24.03222656 C11.8134302 21.70586989 10.31303771 19.39630332 8.8125 17.0859375 C7.707487 15.37033649 6.60331937 13.65419069 5.5 11.9375 C4.95923828 11.10420166 4.41847656 10.27090332 3.86132812 9.41235352 C3.36052734 8.62530029 2.85972656 7.83824707 2.34375 7.02734375 C1.89193359 6.32343506 1.44011719 5.61952637 0.97460938 4.89428711 C0 3 0 3 0 0 Z " fill="#19385C" transform="translate(281,553)"/>
<path d="M0 0 C0 3.98181864 -1.86339499 6.23973037 -4 9.4375 C-4.60751099 10.36369141 -4.60751099 10.36369141 -5.22729492 11.30859375 C-6.47767592 13.21059547 -7.73773944 15.10586636 -9 17 C-9.7462469 18.12620062 -10.49234841 19.25249759 -11.23828125 20.37890625 C-13.15144291 23.25765609 -15.07412581 26.12974639 -17 29 C-17.69480469 30.1034375 -18.38960937 31.206875 -19.10546875 32.34375 C-20.04326172 33.65859375 -20.04326172 33.65859375 -21 35 C-21.66 35 -22.32 35 -23 35 C-21.46567931 30.56472325 -19.07508365 26.90180518 -16.4375 23.0625 C-15.53917565 21.73908751 -14.64206987 20.41484717 -13.74609375 19.08984375 C-13.29089355 18.41679199 -12.83569336 17.74374023 -12.36669922 17.05029297 C-9.79034707 13.18530452 -7.32059486 9.2499805 -4.86889648 5.30493164 C-2.21804136 1.10902068 -2.21804136 1.10902068 0 0 Z " fill="#1D4066" transform="translate(741,557)"/>
<path d="M0 0 C0.33 0.99 0.66 1.98 1 3 C-0.35313765 5.37179183 -1.74216301 7.52821564 -3.3125 9.75 C-4.23758105 11.09073074 -5.16204149 12.43188987 -6.0859375 13.7734375 C-6.56643555 14.4653418 -7.04693359 15.15724609 -7.54199219 15.87011719 C-8.99243373 17.98894706 -10.39704188 20.13147987 -11.7890625 22.2890625 C-12.23338623 22.97387695 -12.67770996 23.65869141 -13.13549805 24.36425781 C-13.99118456 25.68573431 -14.84177541 27.01052695 -15.68676758 28.33886719 C-18.66410294 32.88803431 -18.66410294 32.88803431 -22 34 C-20.56133618 29.96611757 -18.6097022 26.71100077 -16.19140625 23.18359375 C-15.8240184 22.64525406 -15.45663055 22.10691437 -15.07810974 21.55226135 C-13.91070872 19.84423029 -12.73662674 18.14091255 -11.5625 16.4375 C-10.77757395 15.2900013 -9.9930647 14.14221737 -9.20898438 12.99414062 C-3.08600711 4.04876921 -3.08600711 4.04876921 0 0 Z " fill="#1B3A5F" transform="translate(548,845)"/>
<path d="M0 0 C0.33 0 0.66 0 1 0 C0.78453524 8.68416681 -2.72638356 15.46355592 -6.5625 23.0625 C-7.18550565 24.32164256 -7.80726116 25.58140448 -8.42773438 26.84179688 C-9.93967174 29.90083293 -11.46393395 32.95302842 -13 36 C-13.66 36 -14.32 36 -15 36 C-14.55149342 34.18504338 -14.09090429 32.37306866 -13.625 30.5625 C-13.36976563 29.55316406 -13.11453125 28.54382813 -12.8515625 27.50390625 C-12 25 -12 25 -10 24 C-9.00546222 22.16375493 -9.00546222 22.16375493 -8.125 19.921875 C-7.77953125 19.09042969 -7.4340625 18.25898438 -7.078125 17.40234375 C-6.54445313 16.08943359 -6.54445313 16.08943359 -6 14.75 C-5.64421875 13.89019531 -5.2884375 13.03039062 -4.921875 12.14453125 C-3.2546206 8.10703832 -1.61073863 4.06040362 0 0 Z " fill="#1A3F65" transform="translate(773,491)"/>
<path d="M0 0 C0 0.66 0 1.32 0 2 C-13.09595431 9.21765663 -25.83059059 14.16887573 -41 13 C-41 12.67 -41 12.34 -41 12 C-40.01902344 11.84144531 -39.03804687 11.68289063 -38.02734375 11.51953125 C-26.2145344 9.51483496 -10.83762318 0 0 0 Z " fill="#123762" transform="translate(566,496)"/>
<path d="M0 0 C4.05928893 3.75528932 6.58990236 8.02333057 9.4140625 12.734375 C9.93742187 13.48203125 10.46078125 14.2296875 11 15 C11.66 15 12.32 15 13 15 C13.37125 15.969375 13.7425 16.93875 14.125 17.9375 C16.13765439 22.68230842 19.0531815 26.79434641 22 31 C21.67 31.66 21.34 32.32 21 33 C16.24106806 28.55899671 12.96056713 23.17086111 9.43505859 17.75463867 C8.24782055 15.93415809 7.04825755 14.12223414 5.84765625 12.31054688 C5.09038747 11.15414209 4.33385099 9.99725736 3.578125 8.83984375 C2.89137695 7.79175537 2.20462891 6.74366699 1.49707031 5.66381836 C0 3 0 3 0 0 Z " fill="#183A60" transform="translate(439,791)"/>
<path d="M0 0 C-7.09827533 4.25393096 -14.25226781 8.22353847 -21.69921875 11.8359375 C-23.9064377 12.80252934 -23.9064377 12.80252934 -25 14 C-27.3125 14.375 -27.3125 14.375 -30 14 C-32.3125 11.5 -32.3125 11.5 -34 9 C-33.67 8.34 -33.34 7.68 -33 7 C-32.443125 7.680625 -31.88625 8.36125 -31.3125 9.0625 C-30.549375 9.701875 -29.78625 10.34125 -29 11 C-25.23843356 10.64741422 -22.50477346 9.35724675 -19.27734375 7.4609375 C-18.40916016 6.96335937 -17.54097656 6.46578125 -16.64648438 5.953125 C-14.83417557 4.89736039 -13.0242872 3.83743037 -11.21679688 2.7734375 C-10.34990234 2.2784375 -9.48300781 1.7834375 -8.58984375 1.2734375 C-7.80472412 0.81372559 -7.01960449 0.35401367 -6.21069336 -0.11962891 C-3.65121982 -1.13889579 -2.53840685 -0.95140516 0 0 Z " fill="#113B67" transform="translate(624,322)"/>
<path d="M0 0 C0.33 0 0.66 0 1 0 C1 12.21 1 24.42 1 37 C-2.27448456 30.45103088 -2.18325735 25.37879809 -2.1875 18.1875 C-2.20586914 16.56618164 -2.20586914 16.56618164 -2.22460938 14.91210938 C-2.23446131 9.56251063 -2.20197721 4.98708672 0 0 Z " fill="#153964" transform="translate(415,381)"/>
<path d="M0 0 C7.08410164 0.4250461 12.89229622 3.39482635 19.25 6.375 C20.33796875 6.87 21.4259375 7.365 22.546875 7.875 C31.30980299 11.93110776 31.30980299 11.93110776 34 15 C33.34 15.33 32.68 15.66 32 16 C29.80444336 15.16723633 29.80444336 15.16723633 27.08984375 13.83203125 C26.09919922 13.35056641 25.10855469 12.86910156 24.08789062 12.37304688 C23.04826172 11.85806641 22.00863281 11.34308594 20.9375 10.8125 C18.90551576 9.81784953 16.87297064 8.82434399 14.83984375 7.83203125 C13.36813721 7.11200928 13.36813721 7.11200928 11.86669922 6.37744141 C7.94972901 4.49534756 3.98767391 2.72642084 0 1 C0 0.67 0 0.34 0 0 Z " fill="#153B66" transform="translate(609,145)"/>
<path d="M0 0 C3.94519267 1.51129875 5.57247178 3.82187988 7.9375 7.25 C12.56273475 14.57030068 12.56273475 14.57030068 19 20 C19 20.66 19 21.32 19 22 C19.61875 22.268125 20.2375 22.53625 20.875 22.8125 C23 24 23 24 25 27 C22.03824877 26.38722388 20.61941217 25.74627478 18 24 C18 23.34 18 22.68 18 22 C17.40074707 21.73807861 16.80149414 21.47615723 16.18408203 21.20629883 C13.86727935 19.92669654 12.69773434 18.75232177 11.0546875 16.69921875 C10.53519531 16.05146484 10.01570313 15.40371094 9.48046875 14.73632812 C8.95066406 14.06021484 8.42085938 13.38410156 7.875 12.6875 C7.33746094 12.02298828 6.79992187 11.35847656 6.24609375 10.67382812 C3.53631959 7.25789087 1.32250078 4.22057349 0 0 Z " fill="#143D67" transform="translate(431,462)"/>
<path d="M0 0 C0.66 0.33 1.32 0.66 2 1 C-0.79254007 3.9804372 -3.5758487 6.13438831 -7.0625 8.25 C-12.17438706 11.41744615 -16.98977862 14.87032042 -21.78515625 18.49609375 C-24 20 -24 20 -26 20 C-24.38056417 16.38741237 -22.75837735 13.87593844 -19.15087891 12.07885742 C-16.95923156 10.97955099 -14.99409944 9.7318392 -12.9609375 8.36328125 C-12.21585937 7.86892578 -11.47078125 7.37457031 -10.703125 6.86523438 C-9.14021839 5.82285958 -7.5803513 4.77591413 -6.0234375 3.72460938 C-5.2809375 3.23412109 -4.5384375 2.74363281 -3.7734375 2.23828125 C-2.75902588 1.5582605 -2.75902588 1.5582605 -1.72412109 0.86450195 C-1.15516113 0.57921631 -0.58620117 0.29393066 0 0 Z " fill="#183F67" transform="translate(372,164)"/>
<path d="M0 0 C0.86882813 0.04382813 1.73765625 0.08765625 2.6328125 0.1328125 C3.54289063 0.184375 4.45296875 0.2359375 5.390625 0.2890625 C6.28523437 0.33289063 7.17984375 0.37671875 8.1015625 0.421875 C12.68186835 0.66507708 17.12889275 1.03263137 21.640625 1.9140625 C21.640625 2.2440625 21.640625 2.5740625 21.640625 2.9140625 C5.800625 2.9140625 -10.039375 2.9140625 -26.359375 2.9140625 C-26.359375 2.5840625 -26.359375 2.2540625 -26.359375 1.9140625 C-25.76398926 1.88900635 -25.16860352 1.8639502 -24.55517578 1.83813477 C-21.86468364 1.72228756 -19.1745516 1.59951054 -16.484375 1.4765625 C-15.54722656 1.43724609 -14.61007812 1.39792969 -13.64453125 1.35742188 C-12.74863281 1.31552734 -11.85273438 1.27363281 -10.9296875 1.23046875 C-9.68856201 1.17548218 -9.68856201 1.17548218 -8.42236328 1.11938477 C-5.30054434 0.80868066 -3.28498862 -0.16968194 0 0 Z " fill="#0C2B57" transform="translate(512.359375,126.0859375)"/>
<path d="M0 0 C4.27230461 1.42410154 5.28729751 4.54534012 7.3125 8.3125 C7.70622803 9.03002441 8.09995605 9.74754883 8.50561523 10.48681641 C18 27.90383458 18 27.90383458 18 31 C15 30 15 30 13.68359375 27.53125 C13.27238281 26.5309375 12.86117187 25.530625 12.4375 24.5 C11.06397128 20.49211799 11.06397128 20.49211799 8 18 C7.0703125 15.92578125 7.0703125 15.92578125 6.125 13.3125 C4.50653713 9.05947163 2.5962942 5.70899172 0 2 C0 1.34 0 0.68 0 0 Z " fill="#173C63" transform="translate(748,259)"/>
<path d="M0 0 C3.05864674 2.87728738 5.37739751 5.83924696 7.671875 9.3515625 C8.33574219 10.36734375 8.99960937 11.383125 9.68359375 12.4296875 C10.36550781 13.48414063 11.04742187 14.53859375 11.75 15.625 C12.44738281 16.6871875 13.14476562 17.749375 13.86328125 18.84375 C19 26.74484773 19 26.74484773 19 29 C14.96279016 27.65426339 13.85591441 25.03133012 11.75 21.5625 C10.95640736 20.283925 10.1608157 19.0065887 9.36328125 17.73046875 C8.96834473 17.09802246 8.5734082 16.46557617 8.16650391 15.81396484 C6.00853074 12.45822172 3.61290071 9.27247124 1.21484375 6.0859375 C0 4 0 4 0 0 Z " fill="#1B3B60" transform="translate(370,687)"/>
<path d="M0 0 C6.30660334 3.39413998 10.3730377 8.64614332 15 14 C15.81210937 14.92554688 16.62421875 15.85109375 17.4609375 16.8046875 C18.19570313 17.67351562 18.93046875 18.54234375 19.6875 19.4375 C20.35136719 20.21996094 21.01523437 21.00242188 21.69921875 21.80859375 C23 24 23 24 22.70703125 26.28515625 C22.47371094 26.85105469 22.24039063 27.41695312 22 28 C21.31035156 27.11699219 20.62070312 26.23398438 19.91015625 25.32421875 C15.28842646 19.41670109 10.65118147 13.5220243 5.9375 7.6875 C5.22464844 6.80449219 4.51179687 5.92148438 3.77734375 5.01171875 C2.15341447 2.92079305 2.15341447 2.92079305 0 2 C0 1.34 0 0.68 0 0 Z " fill="#163B62" transform="translate(715,216)"/>
<path d="M0 0 C0.57741943 0.23460937 1.15483887 0.46921875 1.74975586 0.7109375 C1.1812793 1.1234375 0.61280273 1.5359375 0.02709961 1.9609375 C-8.5690477 8.39010944 -14.53741821 15.6708613 -20.25024414 24.7109375 C-20.91024414 24.3809375 -21.57024414 24.0509375 -22.25024414 23.7109375 C-19.98690333 16.87546646 -15.88201956 12.70785551 -10.81274414 7.7109375 C-10.04897461 6.92332031 -9.28520508 6.13570313 -8.49829102 5.32421875 C-7.75772461 4.58558594 -7.0171582 3.84695313 -6.25415039 3.0859375 C-5.58198486 2.41304688 -4.90981934 1.74015625 -4.21728516 1.046875 C-2.25024414 -0.2890625 -2.25024414 -0.2890625 0 0 Z " fill="#0F3A68" transform="translate(455.250244140625,311.2890625)"/>
<path d="M0 0 C0 3.8949751 -1.65566224 6.3556392 -3.5625 9.625 C-3.92093994 10.24729492 -4.27937988 10.86958984 -4.64868164 11.51074219 C-7.32342408 16.06304431 -10.28833228 20.25146418 -13.65234375 24.328125 C-15.07382523 25.97003477 -15.07382523 25.97003477 -16 28 C-16.66 27.67 -17.32 27.34 -18 27 C-16.72350731 23.41959368 -15.25463881 20.83788911 -12.8125 17.9375 C-9.13803702 13.37901351 -6.30490636 8.52513922 -3.48046875 3.40625 C-2 1 -2 1 0 0 Z " fill="#123B65" transform="translate(651,487)"/>
<path d="M0 0 C1.69281481 2.53922221 2.61916822 4.41862466 3.62109375 7.23828125 C3.91693359 8.05876953 4.21277344 8.87925781 4.51757812 9.72460938 C4.97293945 11.00561523 4.97293945 11.00561523 5.4375 12.3125 C7.8056221 18.97952303 7.8056221 18.97952303 10.72265625 25.41796875 C12 28 12 28 12 31 C11.34 31 10.68 31 10 31 C8.70456897 27.95992315 7.41434023 24.91766448 6.125 21.875 C5.76019531 21.0190625 5.39539063 20.163125 5.01953125 19.28125 C-0.31745501 6.6665552 -0.31745501 6.6665552 0 0 Z " fill="#1A395E" transform="translate(247,480)"/>
<path d="M0 0 C3.08362932 2.89313485 5.38375931 5.87135066 7.671875 9.421875 C8.33574219 10.44667969 8.99960937 11.47148438 9.68359375 12.52734375 C10.36550781 13.59082031 11.04742187 14.65429688 11.75 15.75 C12.44738281 16.82894531 13.14476562 17.90789063 13.86328125 19.01953125 C15.57996627 21.6768656 17.29201567 24.3370683 19 27 C18.01 27.33 17.02 27.66 16 28 C15.34773438 26.94941406 14.69546875 25.89882813 14.0234375 24.81640625 C13.14085434 23.39829474 12.25802578 21.98033594 11.375 20.5625 C10.9207666 19.83200439 10.4665332 19.10150879 9.99853516 18.34887695 C7.1042012 13.71207781 4.12977049 9.15484304 0.9609375 4.69921875 C0 3 0 3 0 0 Z " fill="#1A395E" transform="translate(402,735)"/>
<path d="M0 0 C3.33753938 1.11251313 3.60457608 1.50126785 5.33984375 4.3515625 C5.76330078 5.03863281 6.18675781 5.72570312 6.62304688 6.43359375 C7.05681641 7.15675781 7.49058594 7.87992188 7.9375 8.625 C8.36740234 9.32496094 8.79730469 10.02492188 9.24023438 10.74609375 C11.91203608 15.1166586 14.4781828 19.54147399 17 24 C16.01 24 15.02 24 14 24 C12.36285821 21.75486171 10.91908492 19.56435016 9.5 17.1875 C5.77966112 10.59088478 5.77966112 10.59088478 0 6 C0 4.02 0 2.04 0 0 Z " fill="#1C4067" transform="translate(352,661)"/>
<path d="M0 0 C0.33 0 0.66 0 1 0 C0.77322343 9.97816912 -6.13598014 18.48490213 -12.51953125 25.671875 C-14 27 -14 27 -16 27 C-14.47534548 23.63953698 -12.49346241 20.92171849 -10.25 18 C-6.05777562 12.33131703 -2.94412193 6.39008283 0 0 Z " fill="#143C65" transform="translate(598,456)"/>
<path d="M0 0 C0.33 0.99 0.66 1.98 1 3 C-0.37109375 5.0234375 -0.37109375 5.0234375 -2.4375 7.375 C-6.6953804 12.43216672 -9.95425115 17.70140616 -13.23828125 23.41015625 C-15 26 -15 26 -18 27 C-14.17964434 16.70164997 -7.04705921 8.26151839 0 0 Z " fill="#163E67" transform="translate(389,288)"/>
<path d="M0 0 C0.66 0 1.32 0 2 0 C3.62757993 3.39460265 5.25160566 6.79089394 6.875 10.1875 C7.33519531 11.14720703 7.79539062 12.10691406 8.26953125 13.09570312 C8.71425781 14.02705078 9.15898437 14.95839844 9.6171875 15.91796875 C10.02565918 16.77156982 10.43413086 17.6251709 10.85498047 18.50463867 C11.98834406 20.974598 13.01278002 23.46851422 14 26 C9.69869034 24.56623011 8.76374995 21.38384483 6.8125 17.5625 C6.26045898 16.52125977 6.26045898 16.52125977 5.69726562 15.45898438 C3 10.28964228 3 10.28964228 3 8 C2.34 7.67 1.68 7.34 1 7 C1 6.01 1 5.02 1 4 C0.34 3.67 -0.32 3.34 -1 3 C-0.67 2.01 -0.34 1.02 0 0 Z " fill="#193A5F" transform="translate(259,512)"/>
<path d="M0 0 C6.18233368 -0.4026486 11.10720828 1.03144523 16.9375 3 C17.81212891 3.28617188 18.68675781 3.57234375 19.58789062 3.8671875 C21.7284596 4.56901339 23.8654615 5.28008389 26 6 C26 6.66 26 7.32 26 8 C26.66 8.33 27.32 8.66 28 9 C21.50121609 7.64909235 15.24896681 5.92169754 8.9375 3.875 C8.07189453 3.59785156 7.20628906 3.32070312 6.31445312 3.03515625 C4.2084686 2.36031038 2.10371313 1.68188659 0 1 C0 0.67 0 0.34 0 0 Z " fill="#173D68" transform="translate(580,136)"/>
<path d="M0 0 C0.66 0.33 1.32 0.66 2 1 C-7.86194867 12.75978071 -7.86194867 12.75978071 -13 14 C-14.28436734 15.9837767 -14.28436734 15.9837767 -15 18 C-15.99 18 -16.98 18 -18 18 C-17.525625 17.566875 -17.05125 17.13375 -16.5625 16.6875 C-14.76313043 14.97690387 -14.76313043 14.97690387 -14 12 C-12.26231598 10.43778244 -10.46086782 8.94556521 -8.625 7.5 C-4.12495456 3.95788862 -4.12495456 3.95788862 0 0 Z " fill="#113B68" transform="translate(340,186)"/>
<path d="M0 0 C-0.66 0 -1.32 0 -2 0 C-2 0.66 -2 1.32 -2 2 C-4.78871177 3.33957921 -7.58143062 4.67058435 -10.375 6 C-11.1690625 6.3815625 -11.963125 6.763125 -12.78125 7.15625 C-13.54179687 7.5171875 -14.30234375 7.878125 -15.0859375 8.25 C-15.7876709 8.58515625 -16.4894043 8.9203125 -17.21240234 9.265625 C-19 10 -19 10 -21 10 C-21 10.66 -21 11.32 -21 12 C-21.66 12 -22.32 12 -23 12 C-23 11.01 -23 10.02 -23 9 C-19.73735861 7.29629989 -16.46372527 5.61490938 -13.1875 3.9375 C-12.25873047 3.45216797 -11.32996094 2.96683594 -10.37304688 2.46679688 C-9.48037109 2.01240234 -8.58769531 1.55800781 -7.66796875 1.08984375 C-6.84578857 0.66566162 -6.0236084 0.24147949 -5.17651367 -0.19555664 C-3 -1 -3 -1 0 0 Z " fill="#1C416A" transform="translate(406,149)"/>
<path d="M0 0 C0.57073242 0.28987793 1.14146484 0.57975586 1.72949219 0.87841797 C3.90906493 1.95508003 6.10550452 2.96100914 8.328125 3.9453125 C9.12734375 4.29980469 9.9265625 4.65429688 10.75 5.01953125 C11.575 5.38433594 12.4 5.74914062 13.25 6.125 C14.09046875 6.49753906 14.9309375 6.87007813 15.796875 7.25390625 C17.86421227 8.17011254 19.93193048 9.08544805 22 10 C22 10.33 22 10.66 22 11 C14.03771275 11.37915654 8.32231359 8.61002032 2 4 C0.625 1.75 0.625 1.75 0 0 Z " fill="#14406C" transform="translate(462,493)"/>
<path d="M0 0 C0.33 0.66 0.66 1.32 1 2 C2.051875 1.95875 3.10375 1.9175 4.1875 1.875 C7.74010173 1.99147875 9.84866641 2.47208068 13 4 C13 4.33 13 4.66 13 5 C6.89413007 5.20324671 1.09258341 4.41502291 -4.9375 3.5 C-6.3925293 3.28537109 -6.3925293 3.28537109 -7.87695312 3.06640625 C-10.25200552 2.71541329 -12.62627459 2.35983904 -15 2 C-15 1.67 -15 1.34 -15 1 C-10.05 0.67 -5.1 0.34 0 0 Z " fill="#11305B" transform="translate(553,128)"/>
<path d="M0 0 C8.31616812 0.58359075 16.01459326 2.73799414 24 5 C24 5.33 24 5.66 24 6 C15.15568693 6.91703707 8.07905166 4.25955975 0 1 C0 0.67 0 0.34 0 0 Z " fill="#18416B" transform="translate(453,555)"/>
<path d="M0 0 C1.05711427 3.19957435 0.95184778 4.96645088 -0.21484375 8.109375 C-0.48876953 8.86347656 -0.76269531 9.61757813 -1.04492188 10.39453125 C-1.48674805 11.56048828 -1.48674805 11.56048828 -1.9375 12.75 C-2.22818359 13.54277344 -2.51886719 14.33554687 -2.81835938 15.15234375 C-3.53594814 17.10512629 -4.26670906 19.05305941 -5 21 C-5.66 21 -6.32 21 -7 21 C-7.33 21.66 -7.66 22.32 -8 23 C-6.89764589 14.58029533 -3.76813055 7.55996003 0 0 Z " fill="#13335A" transform="translate(366,323)"/>
<path d="M0 0 C4.65713244 2.25923938 6.8149392 5.31321419 9.3125 9.6875 C9.67150391 10.29400391 10.03050781 10.90050781 10.40039062 11.52539062 C11.277546 13.01070705 12.14026602 14.50453221 13 16 C12.01 16 11.02 16 10 16 C8.28125 13.953125 8.28125 13.953125 6.5 11.25 C5.9121875 10.36828125 5.324375 9.4865625 4.71875 8.578125 C4.1515625 7.72734375 3.584375 6.8765625 3 6 C2.4328125 5.27296875 1.865625 4.5459375 1.28125 3.796875 C0 2 0 2 0 0 Z " fill="#1E3F63" transform="translate(292,572)"/>
<path d="M0 0 C4.86872054 0.59559106 8.59328841 2.72477415 12.8125 5.0625 C13.50537109 5.43955078 14.19824219 5.81660156 14.91210938 6.20507812 C16.61128985 7.13083852 18.30609425 8.06462312 20 9 C20 9.66 20 10.32 20 11 C15.68405294 10.0531189 12.17909206 8.14111514 8.3125 6.0625 C7.62349609 5.70220703 6.93449219 5.34191406 6.22460938 4.97070312 C1.12356954 2.24713908 1.12356954 2.24713908 0 0 Z " fill="#143C66" transform="translate(423,540)"/>
<path d="M0 0 C1 3 1 3 0.22729492 4.7175293 C-0.18415771 5.33023682 -0.59561035 5.94294434 -1.01953125 6.57421875 C-1.46490234 7.24130859 -1.91027344 7.90839844 -2.36914062 8.59570312 C-2.84544922 9.28599609 -3.32175781 9.97628906 -3.8125 10.6875 C-4.27720703 11.38939453 -4.74191406 12.09128906 -5.22070312 12.81445312 C-6.42020971 14.58531722 -7.70431848 16.29824059 -9 18 C-9.66 18 -10.32 18 -11 18 C-9.48103632 13.56829827 -7.07360191 9.96975924 -4.375 6.1875 C-3.95476563 5.59001953 -3.53453125 4.99253906 -3.1015625 4.37695312 C-2.07220272 2.91479435 -1.0367177 1.45695101 0 0 Z " fill="#19375B" transform="translate(706,608)"/>
<path d="M0 0 C7.36571071 1.18965087 14.69481007 2.48077909 22 4 C22 4.33 22 4.66 22 5 C14.64417405 5.33605296 7.69461303 5.46656922 1 2 C0.67 1.34 0.34 0.68 0 0 Z " fill="#11345F" transform="translate(485,504)"/>
<path d="M0 0 C0.66 0.99 1.32 1.98 2 3 C-0.66666667 8.33333333 -3.33333333 13.66666667 -6 19 C-6.33 19 -6.66 19 -7 19 C-6.67422369 11.83292123 -3.34556372 6.23072876 0 0 Z " fill="#193D64" transform="translate(265,275)"/>
<path d="M0 0 C0.33 0.99 0.66 1.98 1 3 C-3.3373494 7.69879518 -3.3373494 7.69879518 -6.0625 8.9375 C-8.52513785 9.01693993 -9.91836944 8.26384713 -12 7 C-11.67 6.01 -11.34 5.02 -11 4 C-10.113125 4.268125 -9.22625 4.53625 -8.3125 4.8125 C-4.79457985 5.39309751 -4.79457985 5.39309751 -2.125 2.5625 C-1.42375 1.716875 -0.7225 0.87125 0 0 Z " fill="#1A4068" transform="translate(519,888)"/>
<path d="M0 0 C0.66 0 1.32 0 2 0 C0.57250019 3.79049707 -1.16236542 7.27122456 -3.125 10.8125 C-3.93324219 12.27623047 -3.93324219 12.27623047 -4.7578125 13.76953125 C-5.37269531 14.87361328 -5.37269531 14.87361328 -6 16 C-6.85432111 12.89984991 -7.18380965 11.05817494 -6 8 C-5.02246356 6.97803008 -4.0194119 5.98020375 -3 5 C-2.484375 4.113125 -1.96875 3.22625 -1.4375 2.3125 C-0.7259375 1.1678125 -0.7259375 1.1678125 0 0 Z " fill="#1A4168" transform="translate(755,531)"/>
<path d="M0 0 C2.2553072 2.86556679 4.07217035 5.76277574 5.75 9 C6.19859375 9.845625 6.6471875 10.69125 7.109375 11.5625 C8.09097144 14.24897447 7.99857603 15.36960461 7 18 C5.82333996 15.75474054 4.6585926 13.50455858 3.5 11.25 C3.16613281 10.61578125 2.83226562 9.9815625 2.48828125 9.328125 C0.72824467 5.87989007 0 3.95159931 0 0 Z " fill="#143D68" transform="translate(423,444)"/>
<path d="M0 0 C6.46567022 1.40558048 11.45752952 4.45371104 17 8 C14.10225041 9.20681097 13.02427735 9.00903639 10.01953125 7.890625 C8.96121094 7.34921875 7.90289063 6.8078125 6.8125 6.25 C5.74644531 5.71890625 4.68039062 5.1878125 3.58203125 4.640625 C1 3 1 3 0 0 Z " fill="#153C67" transform="translate(583,249)"/>
<path d="M0 0 C-2.60396573 1.73597716 -5.17024468 3.23521112 -7.9375 4.6875 C-8.79214844 5.14511719 -9.64679688 5.60273438 -10.52734375 6.07421875 C-13.2407283 7.0901305 -14.34004925 7.01831061 -17 6 C-14.73495035 4.80015203 -12.46410112 3.61505231 -10.1875 2.4375 C-9.54490234 2.09525391 -8.90230469 1.75300781 -8.24023438 1.40039062 C-3.33984375 -1.11328125 -3.33984375 -1.11328125 0 0 Z " fill="#173F6A" transform="translate(448,248)"/>
<path d="M0 0 C5.30495001 2.34041912 8.61401474 6.82438535 11 12 C10.6640625 14.28515625 10.6640625 14.28515625 10 16 C9.45730469 15.16855469 8.91460937 14.33710937 8.35546875 13.48046875 C7.64003906 12.39378906 6.92460937 11.30710937 6.1875 10.1875 C5.47980469 9.10855469 4.77210938 8.02960937 4.04296875 6.91796875 C2.4639955 4.66272397 1.0316883 2.82659673 -1 1 C-0.67 0.67 -0.34 0.34 0 0 Z " fill="#204469" transform="translate(483,860)"/>
<path d="M0 0 C5.80342274 1.48805711 10.17590879 4.59097555 15 8 C14.67 8.66 14.34 9.32 14 10 C7.07 6.04 7.07 6.04 0 2 C0 1.34 0 0.68 0 0 Z " fill="#13406C" transform="translate(553,299)"/>
<path d="M0 0 C1.57529969 2.95197464 2.66804755 5.85815922 3.625 9.0625 C3.88539063 9.91972656 4.14578125 10.77695312 4.4140625 11.66015625 C5 14 5 14 5 17 C4.01 16.67 3.02 16.34 2 16 C0.16918021 10.50754063 -0.20568145 5.75908058 0 0 Z " fill="#123760" transform="translate(417,424)"/>
<path d="M0 0 C1.32435978 3.97307934 0.18129186 6.80974568 -0.9375 10.6875 C-1.13279297 11.38939453 -1.32808594 12.09128906 -1.52929688 12.81445312 C-2.01199136 14.54508944 -2.50500846 16.27284066 -3 18 C-3.33 18 -3.66 18 -4 18 C-4.45164525 10.88658735 -3.32797915 6.28453206 0 0 Z " fill="#13355C" transform="translate(246,324)"/>
<path d="M0 0 C4.61401459 3.25695147 8.00362438 7.24286757 11 12 C11 12.66 11 13.32 11 14 C7.41297339 12.53185858 5.59626852 10.61565711 3.25 7.5625 C2.63640625 6.78003906 2.0228125 5.99757813 1.390625 5.19140625 C0 3 0 3 0 0 Z " fill="#133860" transform="translate(637,289)"/>
<path d="M0 0 C2.26739166 3.4010875 2.92237748 6.50635326 3.6875 10.4375 C3.82994141 11.10587891 3.97238281 11.77425781 4.11914062 12.46289062 C4.80654585 15.91359643 5.272827 18.65989694 4 22 C4 21.01 4 20.02 4 19 C3.34 18.67 2.68 18.34 2 18 C1.01012982 15.06316662 0.73275844 12.07443705 0.4375 9 C0.35371094 8.154375 0.26992188 7.30875 0.18359375 6.4375 C0.02235948 4.29685772 0 2.14670582 0 0 Z " fill="#2A557C" transform="translate(782,335)"/>
<path d="M0 0 C1 3 1 3 -0.328125 5.6640625 C-1.27945313 7.12972656 -1.27945313 7.12972656 -2.25 8.625 C-2.87390625 9.60726562 -3.4978125 10.58953125 -4.140625 11.6015625 C-6 14 -6 14 -9 15 C-7.61219205 11.10993227 -5.7847773 8.03441292 -3.375 4.6875 C-2.74335937 3.80449219 -2.11171875 2.92148437 -1.4609375 2.01171875 C-0.97882812 1.34785156 -0.49671875 0.68398438 0 0 Z " fill="#17355A" transform="translate(611,750)"/>
<path d="M0 0 C4.20240011 3.71750779 6.99782679 8.31660979 10 13 C9.67 13.66 9.34 14.32 9 15 C5.17649939 11.60133279 2.28703425 7.56469541 0 3 C0 2.01 0 1.02 0 0 Z " fill="#1A365A" transform="translate(342,645)"/>
<path d="M0 0 C0 3.88091967 -1.65317733 6.39673296 -3.5 9.6875 C-3.83386719 10.29400391 -4.16773438 10.90050781 -4.51171875 11.52539062 C-5.335537 13.02003231 -6.16703451 14.51043671 -7 16 C-8.01299606 13.34397374 -8.07672553 12.21604293 -7.109375 9.4921875 C-6.66078125 8.62851562 -6.2121875 7.76484375 -5.75 6.875 C-5.31171875 6.00617188 -4.8734375 5.13734375 -4.421875 4.2421875 C-3 2 -3 2 0 0 Z " fill="#0F3460" transform="translate(431,338)"/>
<path d="M0 0 C4.16507217 0.54005376 6.54445439 1.83065101 9.8125 4.4375 C10.60269531 5.05496094 11.39289062 5.67242187 12.20703125 6.30859375 C12.79871094 6.86675781 13.39039063 7.42492187 14 8 C14 8.66 14 9.32 14 10 C10.67312232 8.45315734 7.75296022 6.54045021 4.75 4.4375 C3.85796875 3.81746094 2.9659375 3.19742188 2.046875 2.55859375 C1.37140625 2.04425781 0.6959375 1.52992188 0 1 C0 0.67 0 0.34 0 0 Z " fill="#163962" transform="translate(668,176)"/>
<path d="M0 0 C4.12666074 1.48918627 5.2973363 3.80843004 7.25 7.625 C7.77078125 8.62789062 8.2915625 9.63078125 8.828125 10.6640625 C9.21484375 11.43492187 9.6015625 12.20578125 10 13 C6.37114422 11.54845769 4.84567327 9.7599362 2.75 6.5 C1.96882813 5.30890625 1.96882813 5.30890625 1.171875 4.09375 C0 2 0 2 0 0 Z " fill="#1E3E63" transform="translate(428,776)"/>
<path d="M0 0 C0 0.33 0 0.66 0 1 C-1.65 1 -3.3 1 -5 1 C-5 1.66 -5 2.32 -5 3 C-11.435 3.495 -11.435 3.495 -18 4 C-13.55498643 -0.44501357 -5.97780497 -0.25437468 0 0 Z " fill="#10335F" transform="translate(484,237)"/>
<path d="M0 0 C4.23431576 3.60700972 6.4692099 8.14586161 9 13 C8.01 13 7.02 13 6 13 C4.39453125 10.91796875 4.39453125 10.91796875 2.8125 8.1875 C2.28269531 7.29417969 1.75289063 6.40085937 1.20703125 5.48046875 C0 3 0 3 0 0 Z " fill="#19365B" transform="translate(360,672)"/>
<path d="M0 0 C0.66 0 1.32 0 2 0 C0.50328459 4.49014624 -1.83368341 8.47848764 -5 12 C-5.66 12 -6.32 12 -7 12 C-5.50328459 7.50985376 -3.16631659 3.52151236 0 0 Z " fill="#1D4065" transform="translate(715,595)"/>
<path d="M0 0 C0.33 0 0.66 0 1 0 C0.6083965 5.95507399 -0.37124595 10.62819824 -3 16 C-4.49828872 12.11764181 -3.43110582 9.56550712 -2.0625 5.75 C-1.68222656 4.67234375 -1.30195312 3.5946875 -0.91015625 2.484375 C-0.45962891 1.25460937 -0.45962891 1.25460937 0 0 Z " fill="#17355A" transform="translate(779,473)"/>
<path d="M0 0 C0.33 0 0.66 0 1 0 C1.42765417 6.41481258 -0.14256832 11.88595404 -2 18 C-2.33 18 -2.66 18 -3 18 C-2.67 13.71 -2.34 9.42 -2 5 C-1.34 5 -0.68 5 0 5 C0 3.35 0 1.7 0 0 Z " fill="#1D4062" transform="translate(788,433)"/>
<path d="M0 0 C3.62613199 0.56959153 5.25517741 1.92374534 7.75 4.5625 C8.36359375 5.20316406 8.9771875 5.84382813 9.609375 6.50390625 C10.06828125 6.99761719 10.5271875 7.49132812 11 8 C10.67 8.99 10.34 9.98 10 11 C8.33035479 9.35718838 6.6643536 7.71067239 5 6.0625 C4.071875 5.14597656 3.14375 4.22945313 2.1875 3.28515625 C0 1 0 1 0 0 Z " fill="#0E3763" transform="translate(577,316)"/>
<path d="M0 0 C3.99868922 2.66579282 4.78983771 5.46189142 6 10 C6.1875 13.5 6.1875 13.5 6 16 C4.08614468 13.12921701 3.03567048 10.66588344 1.875 7.4375 C1.52179687 6.46683594 1.16859375 5.49617188 0.8046875 4.49609375 C0 2 0 2 0 0 Z " fill="#13355D" transform="translate(770,302)"/>
<path d="M0 0 C0.33 0.99 0.66 1.98 1 3 C-0.14453125 5.26171875 -0.14453125 5.26171875 -1.8125 7.6875 C-2.35519531 8.49574219 -2.89789062 9.30398438 -3.45703125 10.13671875 C-3.96621094 10.75160156 -4.47539063 11.36648438 -5 12 C-5.66 12 -6.32 12 -7 12 C-5.44298069 7.32894208 -2.91552627 3.91294315 0 0 Z " fill="#1B3E64" transform="translate(662,674)"/>
<path d="M0 0 C0.66 0 1.32 0 2 0 C0.50328459 4.49014624 -1.83368341 8.47848764 -5 12 C-5.66 12 -6.32 12 -7 12 C-5.50328459 7.50985376 -3.16631659 3.52151236 0 0 Z " fill="#1F3F64" transform="translate(672,659)"/>
<path d="M0 0 C-2.1755306 2.1755306 -3.55973892 2.71879553 -6.4375 3.6875 C-7.61119141 4.09548828 -7.61119141 4.09548828 -8.80859375 4.51171875 C-11 5 -11 5 -14 4 C-9.08202469 0.94288021 -5.81072208 -0.12912716 0 0 Z " fill="#133A64" transform="translate(576,555)"/>
<path d="M0 0 C-1.38782485 0.8466034 -2.78569397 1.67675339 -4.1875 2.5 C-4.96480469 2.9640625 -5.74210938 3.428125 -6.54296875 3.90625 C-9.24103386 5.10729647 -11.0806982 5.20741043 -14 5 C-5.5985874 -1.78575633 -5.5985874 -1.78575633 0 0 Z " fill="#16406A" transform="translate(595,547)"/>
<path d="M0 0 C3.47132095 1.40929697 4.88093274 2.90605083 6.75 6.125 C7.39195312 7.21167969 7.39195312 7.21167969 8.046875 8.3203125 C8.51867187 9.15175781 8.51867187 9.15175781 9 10 C8.34 10.66 7.68 11.32 7 12 C5.82767315 10.3790787 4.6622923 8.75313167 3.5 7.125 C2.8503125 6.22007812 2.200625 5.31515625 1.53125 4.3828125 C0 2 0 2 0 0 Z " fill="#1E4269" transform="translate(324,620)"/>
<path d="M0 0 C0.66 1.32 1.32 2.64 2 4 C-0.67478244 5.6627026 -2.9995144 6.99983813 -6 8 C-4.55746343 4.63408134 -2.66735273 2.48952921 0 0 Z M3 0 C3 3 3 3 3 3 Z " fill="#124A7A" transform="translate(633,512)"/>
<path d="M0 0 C0.33 0 0.66 0 1 0 C2.04559253 6.58723293 1.83292414 11.59233959 0 18 C-0.33 18 -0.66 18 -1 18 C-1.11269443 11.8894576 -0.89604368 6.04829486 0 0 Z " fill="#16406B" transform="translate(668,425)"/>
<path d="M0 0 C4.62 0 9.24 0 14 0 C14.33 1.32 14.66 2.64 15 4 C14.34 4.66 13.68 5.32 13 6 C12.78601563 5.35546875 12.57203125 4.7109375 12.3515625 4.046875 C11.1526477 1.72160885 11.1526477 1.72160885 8.3984375 1.390625 C6.90183594 1.32101562 6.90183594 1.32101562 5.375 1.25 C3.87066406 1.16492188 3.87066406 1.16492188 2.3359375 1.078125 C1.56507813 1.05234375 0.79421875 1.0265625 0 1 C0 0.67 0 0.34 0 0 Z " fill="#184572" transform="translate(656,384)"/>
<path d="M0 0 C-0.66 0 -1.32 0 -2 0 C-2 0.66 -2 1.32 -2 2 C-7.34629602 3.0024305 -11.62374766 2.84888195 -17 2 C-17 1.67 -17 1.34 -17 1 C-14.73052303 0.63724344 -12.45935265 0.28506814 -10.1875 -0.0625 C-8.92292969 -0.25972656 -7.65835938 -0.45695313 -6.35546875 -0.66015625 C-3 -1 -3 -1 0 0 Z " fill="#1B4F7D" transform="translate(551,562)"/>
<path d="M0 0 C0.88336837 2.4667645 1.1312406 3.63859372 0.22265625 6.140625 C-0.16019531 6.83671875 -0.54304687 7.5328125 -0.9375 8.25 C-1.31777344 8.95640625 -1.69804688 9.6628125 -2.08984375 10.390625 C-2.39019531 10.92171875 -2.69054687 11.4528125 -3 12 C-3.66 12 -4.32 12 -5 12 C-4.55149342 10.18504338 -4.09090429 8.37306866 -3.625 6.5625 C-3.36976563 5.55316406 -3.11453125 4.54382813 -2.8515625 3.50390625 C-2 1 -2 1 0 0 Z " fill="#12355D" transform="translate(763,515)"/>
<path d="M0 0 C2.79958342 4.19937513 3.11598878 6.09705438 3.0625 11.125 C3.05347656 12.22070312 3.04445313 13.31640625 3.03515625 14.4453125 C3.02355469 15.28835938 3.01195312 16.13140625 3 17 C2.67 17 2.34 17 2 17 C-0.29612756 5.47835991 -0.29612756 5.47835991 0 0 Z " fill="#122A4D" transform="translate(785,354)"/>
<path d="M0 0 C0 0.66 0 1.32 0 2 C-3.63 3.32 -7.26 4.64 -11 6 C-11.66 5.34 -12.32 4.68 -13 4 C-11.39850114 3.32694982 -9.79368971 2.66177773 -8.1875 2 C-7.29417969 1.62875 -6.40085937 1.2575 -5.48046875 0.875 C-3 0 -3 0 0 0 Z " fill="#1B426D" transform="translate(419,143)"/>
<path d="M0 0 C6.73742646 -0.11044961 13.29980211 0.29867087 20 1 C20 1.33 20 1.66 20 2 C6.3667426 3.51708428 6.3667426 3.51708428 0 1 C0 0.67 0 0.34 0 0 Z " fill="#285D88" transform="translate(528,127)"/>
<path d="M0 0 C3.2626876 3.08632611 6.02235218 5.93483504 8 10 C7.67 10.66 7.34 11.32 7 12 C0.29612756 4.88610478 0.29612756 4.88610478 0 0 Z " fill="#143156" transform="translate(478,850)"/>
<path d="M0 0 C0 3.63195496 -0.95453155 4.74713911 -3 7.6875 C-3.556875 8.49574219 -4.11375 9.30398438 -4.6875 10.13671875 C-5.120625 10.75160156 -5.55375 11.36648438 -6 12 C-7 9 -7 9 -6.07421875 6.9921875 C-5.61660156 6.29351563 -5.15898438 5.59484375 -4.6875 4.875 C-4.23761719 4.17117188 -3.78773438 3.46734375 -3.32421875 2.7421875 C-2 1 -2 1 0 0 Z " fill="#22476E" transform="translate(681,647)"/>
<path d="M0 0 C0.99 0.33 1.98 0.66 3 1 C-0.96 4.465 -0.96 4.465 -5 8 C-5.66 7.67 -6.32 7.34 -7 7 C-4.78071806 4.09197539 -3.07030857 2.04687238 0 0 Z " fill="#113B67" transform="translate(616,529)"/>
<path d="M0 0 C-1.5830577 4.2742558 -4.50568404 6.26531794 -8 9 C-8.66 8.67 -9.32 8.34 -10 8 C-8.33333333 6.33333333 -6.66666667 4.66666667 -5 3 C-4.443125 2.401875 -3.88625 1.80375 -3.3125 1.1875 C-2 0 -2 0 0 0 Z " fill="#174069" transform="translate(579,486)"/>
<path d="M0 0 C2.63936793 1.95083716 3.02052507 3.09236282 3.75 6.375 C3.97105271 9.58026434 3.8378937 11.92772311 3 15 C2.67 15 2.34 15 2 15 C1.66048381 13.43883181 1.32867456 11.87598662 1 10.3125 C0.814375 9.44238281 0.62875 8.57226562 0.4375 7.67578125 C0.01027953 5.06287036 -0.07616201 2.64186962 0 0 Z " fill="#1F5280" transform="translate(414,414)"/>
<path d="M0 0 C0.33 0 0.66 0 1 0 C1.19294408 4.82360189 0.75747614 8.49646738 -1 13 C-1.33 13 -1.66 13 -2 13 C-2.05447047 11.58376784 -2.09300508 10.16691809 -2.125 8.75 C-2.14820313 7.96109375 -2.17140625 7.1721875 -2.1953125 6.359375 C-1.9828378 3.79268059 -1.28654105 2.2083933 0 0 Z " fill="#163257" transform="translate(239,352)"/>
<path d="M0 0 C0.75 1.6875 0.75 1.6875 1 4 C-1.13381449 7.2769294 -2.25018012 8.75006004 -6 10 C-4.6302836 6.00499382 -2.74277578 3.19990508 0 0 Z " fill="#194169" transform="translate(285,244)"/>
<path d="M0 0 C4.39750672 0.50740462 6.86948922 3.08293314 10 6 C10 6.66 10 7.32 10 8 C6.05205855 6.32971708 3.18203882 3.8204435 0 1 C0 0.67 0 0.34 0 0 Z " fill="#113965" transform="translate(403,525)"/>
<path d="M0 0 C-1.45537568 0.83848804 -2.91440373 1.67063934 -4.375 2.5 C-5.59316406 3.19609375 -5.59316406 3.19609375 -6.8359375 3.90625 C-9 5 -9 5 -11 5 C-11 4.34 -11 3.68 -11 3 C-4.03571429 -1.41964286 -4.03571429 -1.41964286 0 0 Z " fill="#123863" transform="translate(637,315)"/>
<path d="M0 0 C3.33557632 2.9905167 5.15083921 5.93184627 7 10 C6.01 10 5.02 10 4 10 C0 3.375 0 3.375 0 0 Z " fill="#17365D" transform="translate(390,717)"/>
<path d="M0 0 C3.82524236 1.450954 5.19090966 3.38181932 7 7 C7 7.66 7 8.32 7 9 C2.97449681 7.6581656 2.11714364 5.5772427 0 2 C0 1.34 0 0.68 0 0 Z " fill="#1D4167" transform="translate(382,707)"/>
<path d="M0 0 C2 2 2 2 2.3125 5.375 C2 9 2 9 -1 13 C-0.67 8.71 -0.34 4.42 0 0 Z " fill="#214C74" transform="translate(236,363)"/>
<path d="M0 0 C0 4.0333534 -1.60879918 5.83517538 -4 9 C-4.66 9 -5.32 9 -6 9 C-4.68775452 5.06326356 -3.08089673 2.77280706 0 0 Z " fill="#1E4064" transform="translate(557,833)"/>
<path d="M0 0 C3.48331435 3.01887244 4.79157144 5.56909529 6 10 C3 9 3 9 1.3125 6.125 C0 3 0 3 0 0 Z " fill="#163559" transform="translate(273,539)"/>
<path d="M0 0 C-1.38009621 3.33523252 -2.84950652 5.18607951 -6 7 C-6.99 6.67 -7.98 6.34 -9 6 C-7.8803014 4.99406757 -6.7540588 3.9954151 -5.625 3 C-4.68527344 2.1646875 -4.68527344 2.1646875 -3.7265625 1.3125 C-2 0 -2 0 0 0 Z " fill="#123861" transform="translate(414,266)"/>
<path d="M0 0 C4.7517398 0.43197635 6.92000054 1.32769295 10 5 C5.75354935 5 3.61475228 3.18249194 0 1 C0 0.67 0 0.34 0 0 Z " fill="#133861" transform="translate(647,163)"/>
<path d="M0 0 C-2.85478326 1.90318884 -4.41941308 2.4619099 -7.6875 3.125 C-8.49574219 3.29257813 -9.30398438 3.46015625 -10.13671875 3.6328125 C-10.75160156 3.75398437 -11.36648438 3.87515625 -12 4 C-11.34 3.67 -10.68 3.34 -10 3 C-10 2.34 -10 1.68 -10 1 C-6.52674819 -0.1577506 -3.63932552 -0.06866652 0 0 Z " fill="#163860" transform="translate(434,139)"/>
<path d="M0 0 C0 0.66 0 1.32 0 2 C-3.41831915 4.5393228 -5.75776898 5.3636198 -10 5 C-7.31217681 1.88778367 -4.19734673 0 0 0 Z " fill="#123760" transform="translate(566,496)"/>
<path d="M0 0 C1.12377697 3.30435084 0.89554742 5.0506862 -0.4375 8.25 C-0.72496094 8.95640625 -1.01242187 9.6628125 -1.30859375 10.390625 C-1.53675781 10.92171875 -1.76492188 11.4528125 -2 12 C-2.33 12 -2.66 12 -3 12 C-3.34833144 7.12335991 -2.41685712 4.22949995 0 0 Z " fill="#1A426B" transform="translate(366,323)"/>
<path d="M0 0 C3.36720387 1.39332574 4.9859524 2.9789286 7 6 C6.67 6.66 6.34 7.32 6 8 C3.69 6.02 1.38 4.04 -1 2 C-0.67 1.34 -0.34 0.68 0 0 Z " fill="#1D3F63" transform="translate(498,882)"/>
<path d="M0 0 C0.66 0 1.32 0 2 0 C6 5.41176471 6 5.41176471 6 8 C2.83884224 6.63016497 2.0072908 6.0109362 0 3 C0 2.01 0 1.02 0 0 Z " fill="#17395E" transform="translate(467,834)"/>
<path d="M0 0 C0.66 0 1.32 0 2 0 C3.38938077 1.96147874 4.7260411 3.96166576 6 6 C5.67 6.66 5.34 7.32 5 8 C2.5 5.6875 2.5 5.6875 0 3 C0 2.01 0 1.02 0 0 Z " fill="#17375D" transform="translate(461,825)"/>
<path d="M0 0 C0.66 0 1.32 0 2 0 C3.5625 2.8125 3.5625 2.8125 5 6 C4.67 6.99 4.34 7.98 4 9 C0 3.375 0 3.375 0 0 Z " fill="#1F436A" transform="translate(421,764)"/>
<path d="M0 0 C1 3 1 3 -0.25 5.625 C-2 8 -2 8 -5 9 C-3.7508258 5.54074837 -2.32472205 2.85306797 0 0 Z " fill="#15355B" transform="translate(641,705)"/>
<path d="M0 0 C3.8063457 0.67170806 7.35206816 1.72746564 11 3 C11 3.33 11 3.66 11 4 C4.25 4.125 4.25 4.125 2 3 C2 2.34 2 1.68 2 1 C1.34 0.67 0.68 0.34 0 0 Z " fill="#1A4D7B" transform="translate(542,295)"/>
<path d="M0 0 C-1.28519565 2.86697492 -2.57129254 4.97607712 -5 7 C-5.66 7 -6.32 7 -7 7 C-3.86206897 0 -3.86206897 0 0 0 Z " fill="#123861" transform="translate(401,277)"/>
<path d="M0 0 C0 0.66 0 1.32 0 2 C0.66 2 1.32 2 2 2 C2.33 2.99 2.66 3.98 3 5 C0.03 4.01 -2.94 3.02 -6 2 C-3 0 -3 0 0 0 Z " fill="#174E7F" transform="translate(581,246)"/>
<path d="M0 0 C0.33 0.99 0.66 1.98 1 3 C-0.4375 5.1875 -0.4375 5.1875 -2 7 C-3.32 6.67 -4.64 6.34 -6 6 C-4 4 -2 2 0 0 Z " fill="#16375C" transform="translate(519,888)"/>
<path d="M0 0 C3.08089673 2.77280706 4.68775452 5.06326356 6 9 C3 8 3 8 1.3125 5.625 C0 3 0 3 0 0 Z " fill="#16345B" transform="translate(320,612)"/>
<path d="M0 0 C0.33 0.99 0.66 1.98 1 3 C-0.9375 5.6875 -0.9375 5.6875 -3 8 C-3.99 7.67 -4.98 7.34 -6 7 C-4.02 4.69 -2.04 2.38 0 0 Z " fill="#14385E" transform="translate(389,288)"/>
<path d="M0 0 C-3.26545761 1.88391785 -6.28111761 2.49287967 -10 3 C-9.67 2.01 -9.34 1.02 -9 0 C-5.8033 -1.37001429 -3.30096158 -0.8252404 0 0 Z " fill="#1C4C79" transform="translate(469,241)"/>
<path d="M0 0 C2.97 0.99 5.94 1.98 9 3 C8.01 3.66 7.02 4.32 6 5 C4.02 4.01 2.04 3.02 0 2 C0 1.34 0 0.68 0 0 Z " fill="#1B426D" transform="translate(625,151)"/>
<path d="M0 0 C0.99 0.33 1.98 0.66 3 1 C1.25 5.875 1.25 5.875 -1 7 C-1.04254356 5.00045254 -1.04080783 2.99958364 -1 1 C-0.67 0.67 -0.34 0.34 0 0 Z " fill="#1B466D" transform="translate(522,881)"/>
<path d="M0 0 C0.33 0.99 0.66 1.98 1 3 C-0.4375 5.6875 -0.4375 5.6875 -2 8 C-2.99 7.67 -3.98 7.34 -5 7 C-3.35 4.69 -1.7 2.38 0 0 Z " fill="#16375E" transform="translate(599,768)"/>
<path d="M0 0 C3.55780196 0.60990891 6.6828589 1.5783681 10 3 C10 3.33 10 3.66 10 4 C4.25 4.125 4.25 4.125 2 3 C2 2.34 2 1.68 2 1 C1.34 0.67 0.68 0.34 0 0 Z " fill="#0C3461" transform="translate(474,500)"/>
<path d="M0 0 C2 3 2 3 2.5 5.125 C2.665 5.74375 2.83 6.3625 3 7 C3.66 7.33 4.32 7.66 5 8 C4.01 8.495 4.01 8.495 3 9 C1.5 7.875 1.5 7.875 0 6 C-0.1875 2.8125 -0.1875 2.8125 0 0 Z " fill="#1D4E7A" transform="translate(363,464)"/>
<path d="M0 0 C0.66 0 1.32 0 2 0 C1.25 6.75 1.25 6.75 -1 9 C-0.67 6.03 -0.34 3.06 0 0 Z " fill="#204D79" transform="translate(415,374)"/>
<path d="M0 0 C0.99 0.33 1.98 0.66 3 1 C0.1875 3.0625 0.1875 3.0625 -3 5 C-3.99 4.67 -4.98 4.34 -6 4 C-3.1875 1.9375 -3.1875 1.9375 0 0 Z " fill="#143B63" transform="translate(421,260)"/>
<path d="M0 0 C0.66 0.33 1.32 0.66 2 1 C0.02 3.31 -1.96 5.62 -4 8 C-4.66 7.67 -5.32 7.34 -6 7 C-4.02 4.69 -2.04 2.38 0 0 Z " fill="#19446F" transform="translate(340,186)"/>
<path d="M0 0 C0.99 1.485 0.99 1.485 2 3 C1.01 3.495 1.01 3.495 0 4 C0 2.68 0 1.36 0 0 Z " fill="#26567C" transform="translate(264,528)"/>
<path d="M0 0 C0.33 0 0.66 0 1 0 C1 1.65 1 3.3 1 5 C0.67 5 0.34 5 0 5 C0 3.35 0 1.7 0 0 Z " fill="#265981" transform="translate(232,417)"/>
<path d="M0 0 C0.66 1.32 1.32 2.64 2 4 C1.34 3.67 0.68 3.34 0 3 C0 2.01 0 1.02 0 0 Z " fill="#235982" transform="translate(232,368)"/>
<path d="M0 0 C0.99 0.495 0.99 0.495 2 1 C1.34 1.66 0.68 2.32 0 3 C0 2.01 0 1.02 0 0 Z " fill="#27567B" transform="translate(456,825)"/>
<path d="M0 0 C0.99 0.495 0.99 0.495 2 1 C1.67 1.66 1.34 2.32 1 3 C0.67 2.01 0.34 1.02 0 0 Z " fill="#23537B" transform="translate(400,737)"/>
<path d="M0 0 C0.99 1.485 0.99 1.485 2 3 C1.34 3 0.68 3 0 3 C0 2.01 0 1.02 0 0 Z " fill="#25557C" transform="translate(368,689)"/>
<path d="M0 0 C4 1 4 1 4 1 Z " fill="#1D5885" transform="translate(464,128)"/>
<path d="M0 0 C0.66 0.66 1.32 1.32 2 2 C1.34 2 0.68 2 0 2 C0 1.34 0 0.68 0 0 Z " fill="#28577B" transform="translate(476,854)"/>
<path d="M0 0 C3 1 3 1 3 1 Z " fill="#26567D" transform="translate(352,669)"/>
<path d="M0 0 C0.99 0.495 0.99 0.495 2 1 C1.01 1.495 1.01 1.495 0 2 C0 1.34 0 0.68 0 0 Z " fill="#185B8D" transform="translate(540,560)"/>
<path d="M0 0 C3 1 3 1 3 1 Z " fill="#165787" transform="translate(453,552)"/>
<path d="" fill="#29587F" transform="translate(0,0)"/>
<path d="" fill="#215780" transform="translate(0,0)"/>
<path d="" fill="#235782" transform="translate(0,0)"/>
<path d="" fill="#255780" transform="translate(0,0)"/>
<path d="" fill="#17598C" transform="translate(0,0)"/>
<path d="M0 0 C3 1 3 1 3 1 Z " fill="#155689" transform="translate(457,304)"/>
<path d="M0 0 C0.66 0.66 1.32 1.32 2 2 C1.34 2 0.68 2 0 2 C0 1.34 0 0.68 0 0 Z " fill="#175588" transform="translate(644,302)"/>
<path d="" fill="#17588D" transform="translate(0,0)"/>
<path d="M0 0 C0.66 0 1.32 0 2 0 C1.67 0.66 1.34 1.32 1 2 C0.67 1.34 0.34 0.68 0 0 Z " fill="#14568D" transform="translate(567,246)"/>
<path d="M0 0 C3 1 3 1 3 1 Z " fill="#165589" transform="translate(485,239)"/>
<path d="M0 0 C3 1 3 1 3 1 Z " fill="#16598D" transform="translate(496,238)"/>
<path d="M0 0 C3 1 3 1 3 1 Z " fill="#1F5481" transform="translate(320,200)"/>
<path d="M0 0 C3 1 3 1 3 1 Z " fill="#1F5783" transform="translate(431,136)"/>
<path d="M0 0 C3 1 3 1 3 1 Z " fill="#1D5381" transform="translate(562,129)"/>
<path d="M0 0 C3 1 3 1 3 1 Z " fill="#1B5484" transform="translate(557,128)"/>
<path d="" fill="#2C5578" transform="translate(0,0)"/>
<path d="M0 0 C2 1 2 1 2 1 Z " fill="#275579" transform="translate(472,848)"/>
<path d="" fill="#25527A" transform="translate(0,0)"/>
<path d="" fill="#29587C" transform="translate(0,0)"/>
<path d="" fill="#27577F" transform="translate(0,0)"/>
<path d="" fill="#27577B" transform="translate(0,0)"/>
<path d="M0 0 C2 1 2 1 2 1 Z " fill="#25557A" transform="translate(370,694)"/>
<path d="" fill="#26537C" transform="translate(0,0)"/>
<path d="" fill="#27567D" transform="translate(0,0)"/>
<path d="M0 0 C2 1 2 1 2 1 Z " fill="#115486" transform="translate(435,544)"/>
<path d="" fill="#235880" transform="translate(0,0)"/>
<path d="" fill="#22537C" transform="translate(0,0)"/>
<path d="M0 0 C2 1 2 1 2 1 Z " fill="#16598B" transform="translate(626,513)"/>
<path d="" fill="#18588C" transform="translate(0,0)"/>
<path d="M0 0 C2 1 2 1 2 1 Z " fill="#26577C" transform="translate(249,499)"/>
<path d="M0 0 C2 1 2 1 2 1 Z " fill="#165487" transform="translate(464,498)"/>
<path d="" fill="#24557D" transform="translate(0,0)"/>
<path d="" fill="#26567D" transform="translate(0,0)"/>
<path d="M0 0 C2 1 2 1 2 1 Z " fill="#28587C" transform="translate(240,477)"/>
<path d="" fill="#185888" transform="translate(0,0)"/>
<path d="" fill="#175485" transform="translate(0,0)"/>
<path d="" fill="#265980" transform="translate(0,0)"/>
<path d="" fill="#265A80" transform="translate(0,0)"/>
<path d="" fill="#24597F" transform="translate(0,0)"/>
<path d="" fill="#22517A" transform="translate(0,0)"/>
<path d="" fill="#1F4F7A" transform="translate(0,0)"/>
<path d="" fill="#19598C" transform="translate(0,0)"/>
<path d="" fill="#205580" transform="translate(0,0)"/>
<path d="" fill="#235984" transform="translate(0,0)"/>
<path d="" fill="#185788" transform="translate(0,0)"/>
<path d="" fill="#1A5A8D" transform="translate(0,0)"/>
<path d="" fill="#225680" transform="translate(0,0)"/>
<path d="" fill="#245A83" transform="translate(0,0)"/>
<path d="" fill="#215882" transform="translate(0,0)"/>
<path d="" fill="#17568B" transform="translate(0,0)"/>
<path d="M0 0 C2 1 2 1 2 1 Z " fill="#175A8D" transform="translate(522,289)"/>
<path d="M0 0 C2 1 2 1 2 1 Z " fill="#17598A" transform="translate(519,289)"/>
<path d="M0 0 C2 1 2 1 2 1 Z " fill="#18588A" transform="translate(629,286)"/>
<path d="" fill="#27597F" transform="translate(0,0)"/>
<path d="M0 0 C2 1 2 1 2 1 Z " fill="#16578B" transform="translate(608,269)"/>
<path d="M0 0 C2 1 2 1 2 1 Z " fill="#16588A" transform="translate(439,253)"/>
<path d="" fill="#16588C" transform="translate(0,0)"/>
<path d="M0 0 C2 1 2 1 2 1 Z " fill="#1F5480" transform="translate(328,192)"/>
<path d="M0 0 C2 1 2 1 2 1 Z " fill="#1F5683" transform="translate(337,186)"/>
<path d="M0 0 C2 1 2 1 2 1 Z " fill="#1F5682" transform="translate(336,184)"/>
<path d="" fill="#215580" transform="translate(0,0)"/>
<path d="M0 0 C2 1 2 1 2 1 Z " fill="#1B5280" transform="translate(638,155)"/>
<path d="M0 0 C2 1 2 1 2 1 Z " fill="#205783" transform="translate(387,152)"/>
<path d="M0 0 C2 1 2 1 2 1 Z " fill="#215983" transform="translate(400,147)"/>
<path d="M0 0 C2 1 2 1 2 1 Z " fill="#1E5883" transform="translate(408,144)"/>
<path d="" fill="#504A3A" transform="translate(0,0)"/>
<path d="" fill="#305775" transform="translate(0,0)"/>
<path d="" fill="#2D5677" transform="translate(0,0)"/>
<path d="" fill="#2E5879" transform="translate(0,0)"/>
<path d="" fill="#2B5175" transform="translate(0,0)"/>
<path d="" fill="#295679" transform="translate(0,0)"/>
<path d="" fill="#2C567A" transform="translate(0,0)"/>
<path d="" fill="#2A5578" transform="translate(0,0)"/>
<path d="" fill="#2D5779" transform="translate(0,0)"/>
<path d="" fill="#2C5678" transform="translate(0,0)"/>
<path d="" fill="#2A597C" transform="translate(0,0)"/>
<path d="" fill="#28577C" transform="translate(0,0)"/>
<path d="" fill="#255076" transform="translate(0,0)"/>
<path d="" fill="#25557A" transform="translate(0,0)"/>
<path d="" fill="#244E74" transform="translate(0,0)"/>
<path d="" fill="#27557B" transform="translate(0,0)"/>
<path d="" fill="#27567D" transform="translate(0,0)"/>
<path d="" fill="#255078" transform="translate(0,0)"/>
<path d="" fill="#25597D" transform="translate(0,0)"/>
<path d="" fill="#255179" transform="translate(0,0)"/>
<path d="" fill="#20557E" transform="translate(0,0)"/>
<path d="" fill="#25547B" transform="translate(0,0)"/>
<path d="" fill="#26557B" transform="translate(0,0)"/>
<path d="" fill="#1F4F78" transform="translate(0,0)"/>
<path d="" fill="#205076" transform="translate(0,0)"/>
<path d="" fill="#24567D" transform="translate(0,0)"/>
<path d="" fill="#22537D" transform="translate(0,0)"/>
<path d="" fill="#28557E" transform="translate(0,0)"/>
<path d="" fill="#26567C" transform="translate(0,0)"/>
<path d="" fill="#28567A" transform="translate(0,0)"/>
<path d="" fill="#27537B" transform="translate(0,0)"/>
<path d="" fill="#25547B" transform="translate(0,0)"/>
<path d="" fill="#21537B" transform="translate(0,0)"/>
<path d="" fill="#24567D" transform="translate(0,0)"/>
<path d="" fill="#23517A" transform="translate(0,0)"/>
<path d="" fill="#285079" transform="translate(0,0)"/>
<path d="" fill="#2B5479" transform="translate(0,0)"/>
<path d="" fill="#29567C" transform="translate(0,0)"/>
<path d="" fill="#23527A" transform="translate(0,0)"/>
<path d="" fill="#26567D" transform="translate(0,0)"/>
<path d="" fill="#24547B" transform="translate(0,0)"/>
<path d="" fill="#25557C" transform="translate(0,0)"/>
<path d="" fill="#25577E" transform="translate(0,0)"/>
<path d="" fill="#27547C" transform="translate(0,0)"/>
<path d="" fill="#28577D" transform="translate(0,0)"/>
<path d="" fill="#29587D" transform="translate(0,0)"/>
<path d="" fill="#26547C" transform="translate(0,0)"/>
<path d="" fill="#24537A" transform="translate(0,0)"/>
<path d="" fill="#27567C" transform="translate(0,0)"/>
<path d="" fill="#28577C" transform="translate(0,0)"/>
<path d="" fill="#29567C" transform="translate(0,0)"/>
<path d="" fill="#28587E" transform="translate(0,0)"/>
<path d="" fill="#255279" transform="translate(0,0)"/>
<path d="" fill="#29577D" transform="translate(0,0)"/>
<path d="" fill="#25547B" transform="translate(0,0)"/>
<path d="" fill="#2A557B" transform="translate(0,0)"/>
<path d="" fill="#205178" transform="translate(0,0)"/>
<path d="" fill="#28547B" transform="translate(0,0)"/>
<path d="" fill="#29577C" transform="translate(0,0)"/>
<path d="" fill="#28587F" transform="translate(0,0)"/>
<path d="" fill="#2C577D" transform="translate(0,0)"/>
<path d="" fill="#27557C" transform="translate(0,0)"/>
<path d="" fill="#29567C" transform="translate(0,0)"/>
<path d="" fill="#2C587D" transform="translate(0,0)"/>
<path d="" fill="#27557B" transform="translate(0,0)"/>
<path d="" fill="#24537B" transform="translate(0,0)"/>
<path d="" fill="#2C5879" transform="translate(0,0)"/>
<path d="" fill="#275278" transform="translate(0,0)"/>
<path d="" fill="#2C577B" transform="translate(0,0)"/>
<path d="" fill="#26557A" transform="translate(0,0)"/>
<path d="" fill="#2C587D" transform="translate(0,0)"/>
<path d="" fill="#29587C" transform="translate(0,0)"/>
<path d="" fill="#225178" transform="translate(0,0)"/>
<path d="" fill="#26587E" transform="translate(0,0)"/>
<path d="" fill="#28567E" transform="translate(0,0)"/>
<path d="" fill="#24517B" transform="translate(0,0)"/>
<path d="" fill="#27567B" transform="translate(0,0)"/>
<path d="" fill="#27537A" transform="translate(0,0)"/>
<path d="" fill="#28587C" transform="translate(0,0)"/>
<path d="" fill="#29587B" transform="translate(0,0)"/>
<path d="" fill="#21547A" transform="translate(0,0)"/>
<path d="" fill="#27557C" transform="translate(0,0)"/>
<path d="" fill="#22567C" transform="translate(0,0)"/>
<path d="" fill="#27587E" transform="translate(0,0)"/>
<path d="" fill="#25567C" transform="translate(0,0)"/>
<path d="" fill="#26537A" transform="translate(0,0)"/>
<path d="" fill="#28567D" transform="translate(0,0)"/>
<path d="" fill="#2A597E" transform="translate(0,0)"/>
<path d="" fill="#255782" transform="translate(0,0)"/>
<path d="" fill="#26587E" transform="translate(0,0)"/>
<path d="" fill="#25567E" transform="translate(0,0)"/>
<path d="" fill="#26587E" transform="translate(0,0)"/>
<path d="" fill="#29577D" transform="translate(0,0)"/>
<path d="" fill="#27587F" transform="translate(0,0)"/>
<path d="" fill="#27547C" transform="translate(0,0)"/>
<path d="" fill="#24567B" transform="translate(0,0)"/>
<path d="" fill="#27587E" transform="translate(0,0)"/>
<path d="" fill="#25567E" transform="translate(0,0)"/>
<path d="" fill="#2A577D" transform="translate(0,0)"/>
<path d="" fill="#185A8D" transform="translate(0,0)"/>
<path d="" fill="#1B5B8D" transform="translate(0,0)"/>
<path d="" fill="#2B577D" transform="translate(0,0)"/>
<path d="" fill="#2A567C" transform="translate(0,0)"/>
<path d="" fill="#1D5F8F" transform="translate(0,0)"/>
<path d="" fill="#26537A" transform="translate(0,0)"/>
<path d="" fill="#28587D" transform="translate(0,0)"/>
<path d="" fill="#2A587E" transform="translate(0,0)"/>
<path d="" fill="#195C8E" transform="translate(0,0)"/>
<path d="" fill="#1C5B8E" transform="translate(0,0)"/>
<path d="" fill="#1C5C8D" transform="translate(0,0)"/>
<path d="" fill="#16598B" transform="translate(0,0)"/>
<path d="" fill="#28577E" transform="translate(0,0)"/>
<path d="" fill="#1A5B8B" transform="translate(0,0)"/>
<path d="" fill="#165184" transform="translate(0,0)"/>
<path d="" fill="#26577E" transform="translate(0,0)"/>
<path d="" fill="#175686" transform="translate(0,0)"/>
<path d="" fill="#27577C" transform="translate(0,0)"/>
<path d="" fill="#17578A" transform="translate(0,0)"/>
<path d="" fill="#19598B" transform="translate(0,0)"/>
<path d="" fill="#17598C" transform="translate(0,0)"/>
<path d="" fill="#285B7F" transform="translate(0,0)"/>
<path d="" fill="#1A5689" transform="translate(0,0)"/>
<path d="" fill="#175687" transform="translate(0,0)"/>
<path d="" fill="#245981" transform="translate(0,0)"/>
<path d="" fill="#225379" transform="translate(0,0)"/>
<path d="" fill="#28587D" transform="translate(0,0)"/>
<path d="" fill="#18598E" transform="translate(0,0)"/>
<path d="" fill="#185A8D" transform="translate(0,0)"/>
<path d="" fill="#14598A" transform="translate(0,0)"/>
<path d="" fill="#19598C" transform="translate(0,0)"/>
<path d="" fill="#15598E" transform="translate(0,0)"/>
<path d="" fill="#175A8C" transform="translate(0,0)"/>
<path d="" fill="#17588D" transform="translate(0,0)"/>
<path d="" fill="#18588A" transform="translate(0,0)"/>
<path d="" fill="#165487" transform="translate(0,0)"/>
<path d="" fill="#2D5A7A" transform="translate(0,0)"/>
<path d="" fill="#295880" transform="translate(0,0)"/>
<path d="" fill="#11568D" transform="translate(0,0)"/>
<path d="" fill="#165A8F" transform="translate(0,0)"/>
<path d="" fill="#1C5A8D" transform="translate(0,0)"/>
<path d="" fill="#18588A" transform="translate(0,0)"/>
<path d="" fill="#1A5D8F" transform="translate(0,0)"/>
<path d="" fill="#165889" transform="translate(0,0)"/>
<path d="" fill="#16588D" transform="translate(0,0)"/>
<path d="" fill="#165A8B" transform="translate(0,0)"/>
<path d="" fill="#15588B" transform="translate(0,0)"/>
<path d="" fill="#1B5C8E" transform="translate(0,0)"/>
<path d="" fill="#25577F" transform="translate(0,0)"/>
<path d="" fill="#26567E" transform="translate(0,0)"/>
<path d="" fill="#255881" transform="translate(0,0)"/>
<path d="" fill="#1A5689" transform="translate(0,0)"/>
<path d="" fill="#155685" transform="translate(0,0)"/>
<path d="" fill="#275A81" transform="translate(0,0)"/>
<path d="" fill="#195A8E" transform="translate(0,0)"/>
<path d="" fill="#27567C" transform="translate(0,0)"/>
<path d="" fill="#165587" transform="translate(0,0)"/>
<path d="" fill="#1B598B" transform="translate(0,0)"/>
<path d="" fill="#175688" transform="translate(0,0)"/>
<path d="" fill="#16588B" transform="translate(0,0)"/>
<path d="" fill="#1A5989" transform="translate(0,0)"/>
<path d="" fill="#29567D" transform="translate(0,0)"/>
<path d="" fill="#26557B" transform="translate(0,0)"/>
<path d="" fill="#1F5381" transform="translate(0,0)"/>
<path d="" fill="#195688" transform="translate(0,0)"/>
<path d="" fill="#18598B" transform="translate(0,0)"/>
<path d="" fill="#1A5686" transform="translate(0,0)"/>
<path d="" fill="#145284" transform="translate(0,0)"/>
<path d="" fill="#18578A" transform="translate(0,0)"/>
<path d="" fill="#17588A" transform="translate(0,0)"/>
<path d="" fill="#18588C" transform="translate(0,0)"/>
<path d="" fill="#155689" transform="translate(0,0)"/>
<path d="" fill="#185588" transform="translate(0,0)"/>
<path d="" fill="#18598B" transform="translate(0,0)"/>
<path d="" fill="#2B577B" transform="translate(0,0)"/>
<path d="" fill="#26577E" transform="translate(0,0)"/>
<path d="" fill="#1A588C" transform="translate(0,0)"/>
<path d="" fill="#235479" transform="translate(0,0)"/>
<path d="" fill="#175687" transform="translate(0,0)"/>
<path d="" fill="#1A588C" transform="translate(0,0)"/>
<path d="" fill="#1C5E90" transform="translate(0,0)"/>
<path d="" fill="#185A8C" transform="translate(0,0)"/>
<path d="" fill="#22577F" transform="translate(0,0)"/>
<path d="" fill="#1D527D" transform="translate(0,0)"/>
<path d="" fill="#175A8C" transform="translate(0,0)"/>
<path d="" fill="#185B8D" transform="translate(0,0)"/>
<path d="" fill="#175A8D" transform="translate(0,0)"/>
<path d="" fill="#21577D" transform="translate(0,0)"/>
<path d="" fill="#20567E" transform="translate(0,0)"/>
<path d="" fill="#19598A" transform="translate(0,0)"/>
<path d="" fill="#195A8C" transform="translate(0,0)"/>
<path d="" fill="#23547D" transform="translate(0,0)"/>
<path d="" fill="#19598A" transform="translate(0,0)"/>
<path d="" fill="#155688" transform="translate(0,0)"/>
<path d="" fill="#205984" transform="translate(0,0)"/>
<path d="" fill="#235780" transform="translate(0,0)"/>
<path d="" fill="#1E517C" transform="translate(0,0)"/>
<path d="" fill="#195A8C" transform="translate(0,0)"/>
<path d="" fill="#225881" transform="translate(0,0)"/>
<path d="" fill="#235981" transform="translate(0,0)"/>
<path d="" fill="#22557E" transform="translate(0,0)"/>
<path d="" fill="#245881" transform="translate(0,0)"/>
<path d="" fill="#275981" transform="translate(0,0)"/>
<path d="" fill="#25577E" transform="translate(0,0)"/>
<path d="" fill="#185889" transform="translate(0,0)"/>
<path d="" fill="#245781" transform="translate(0,0)"/>
<path d="" fill="#16578B" transform="translate(0,0)"/>
<path d="" fill="#20507B" transform="translate(0,0)"/>
<path d="" fill="#1A588B" transform="translate(0,0)"/>
<path d="" fill="#225883" transform="translate(0,0)"/>
<path d="" fill="#125284" transform="translate(0,0)"/>
<path d="" fill="#205682" transform="translate(0,0)"/>
<path d="" fill="#155285" transform="translate(0,0)"/>
<path d="" fill="#235780" transform="translate(0,0)"/>
<path d="" fill="#1F5480" transform="translate(0,0)"/>
<path d="" fill="#235580" transform="translate(0,0)"/>
<path d="" fill="#17568A" transform="translate(0,0)"/>
<path d="" fill="#16598B" transform="translate(0,0)"/>
<path d="" fill="#16548A" transform="translate(0,0)"/>
<path d="" fill="#25587F" transform="translate(0,0)"/>
<path d="" fill="#165689" transform="translate(0,0)"/>
<path d="" fill="#185486" transform="translate(0,0)"/>
<path d="" fill="#18598A" transform="translate(0,0)"/>
<path d="" fill="#155789" transform="translate(0,0)"/>
<path d="" fill="#17588C" transform="translate(0,0)"/>
<path d="" fill="#185A8C" transform="translate(0,0)"/>
<path d="" fill="#15598D" transform="translate(0,0)"/>
<path d="" fill="#175486" transform="translate(0,0)"/>
<path d="" fill="#175687" transform="translate(0,0)"/>
<path d="" fill="#17598A" transform="translate(0,0)"/>
<path d="" fill="#165688" transform="translate(0,0)"/>
<path d="" fill="#205482" transform="translate(0,0)"/>
<path d="" fill="#195A8B" transform="translate(0,0)"/>
<path d="" fill="#185587" transform="translate(0,0)"/>
<path d="" fill="#1A5A8D" transform="translate(0,0)"/>
<path d="" fill="#14598C" transform="translate(0,0)"/>
<path d="" fill="#155689" transform="translate(0,0)"/>
<path d="" fill="#16578A" transform="translate(0,0)"/>
<path d="" fill="#175589" transform="translate(0,0)"/>
<path d="" fill="#125486" transform="translate(0,0)"/>
<path d="" fill="#175688" transform="translate(0,0)"/>
<path d="" fill="#155787" transform="translate(0,0)"/>
<path d="" fill="#1A5C8F" transform="translate(0,0)"/>
<path d="" fill="#145789" transform="translate(0,0)"/>
<path d="" fill="#1A5A8E" transform="translate(0,0)"/>
<path d="" fill="#1A517B" transform="translate(0,0)"/>
<path d="" fill="#185A91" transform="translate(0,0)"/>
<path d="" fill="#1A5D92" transform="translate(0,0)"/>
<path d="" fill="#185A8C" transform="translate(0,0)"/>
<path d="" fill="#19598E" transform="translate(0,0)"/>
<path d="" fill="#15578C" transform="translate(0,0)"/>
<path d="" fill="#27587E" transform="translate(0,0)"/>
<path d="" fill="#15558A" transform="translate(0,0)"/>
<path d="" fill="#255A80" transform="translate(0,0)"/>
<path d="" fill="#165587" transform="translate(0,0)"/>
<path d="" fill="#1E5682" transform="translate(0,0)"/>
<path d="" fill="#13548A" transform="translate(0,0)"/>
<path d="" fill="#17568B" transform="translate(0,0)"/>
<path d="" fill="#195588" transform="translate(0,0)"/>
<path d="" fill="#14578B" transform="translate(0,0)"/>
<path d="" fill="#1B517F" transform="translate(0,0)"/>
<path d="" fill="#19588C" transform="translate(0,0)"/>
<path d="" fill="#155587" transform="translate(0,0)"/>
<path d="" fill="#125285" transform="translate(0,0)"/>
<path d="" fill="#1C5B8E" transform="translate(0,0)"/>
<path d="" fill="#15568E" transform="translate(0,0)"/>
<path d="" fill="#1A588D" transform="translate(0,0)"/>
<path d="" fill="#23557E" transform="translate(0,0)"/>
<path d="" fill="#1E5882" transform="translate(0,0)"/>
<path d="" fill="#15578D" transform="translate(0,0)"/>
<path d="" fill="#17588D" transform="translate(0,0)"/>
<path d="" fill="#18598D" transform="translate(0,0)"/>
<path d="" fill="#185B8E" transform="translate(0,0)"/>
<path d="" fill="#1A5A8B" transform="translate(0,0)"/>
<path d="" fill="#18507D" transform="translate(0,0)"/>
<path d="" fill="#225984" transform="translate(0,0)"/>
<path d="" fill="#215781" transform="translate(0,0)"/>
<path d="" fill="#19547E" transform="translate(0,0)"/>
<path d="" fill="#1E5682" transform="translate(0,0)"/>
<path d="" fill="#195382" transform="translate(0,0)"/>
<path d="" fill="#1F5985" transform="translate(0,0)"/>
<path d="" fill="#205883" transform="translate(0,0)"/>
<path d="" fill="#1C5380" transform="translate(0,0)"/>
<path d="" fill="#225782" transform="translate(0,0)"/>
<path d="" fill="#1F507D" transform="translate(0,0)"/>
<path d="" fill="#1B507C" transform="translate(0,0)"/>
<path d="" fill="#215681" transform="translate(0,0)"/>
<path d="" fill="#215580" transform="translate(0,0)"/>
<path d="" fill="#195182" transform="translate(0,0)"/>
<path d="" fill="#255680" transform="translate(0,0)"/>
<path d="" fill="#195181" transform="translate(0,0)"/>
<path d="" fill="#1A5282" transform="translate(0,0)"/>
<path d="" fill="#1F5581" transform="translate(0,0)"/>
<path d="" fill="#205883" transform="translate(0,0)"/>
<path d="" fill="#205785" transform="translate(0,0)"/>
<path d="" fill="#245581" transform="translate(0,0)"/>
<path d="" fill="#1F5882" transform="translate(0,0)"/>
<path d="" fill="#205585" transform="translate(0,0)"/>
<path d="" fill="#1E5681" transform="translate(0,0)"/>
<path d="" fill="#215781" transform="translate(0,0)"/>
<path d="" fill="#20537F" transform="translate(0,0)"/>
<path d="" fill="#205481" transform="translate(0,0)"/>
<path d="" fill="#195281" transform="translate(0,0)"/>
<path d="" fill="#1F5684" transform="translate(0,0)"/>
<path d="" fill="#1B517D" transform="translate(0,0)"/>
<path d="" fill="#1F5981" transform="translate(0,0)"/>
<path d="" fill="#225884" transform="translate(0,0)"/>
<path d="" fill="#265780" transform="translate(0,0)"/>
<path d="" fill="#1D5583" transform="translate(0,0)"/>
<path d="" fill="#1E5782" transform="translate(0,0)"/>
<path d="" fill="#1C5684" transform="translate(0,0)"/>
<path d="" fill="#225985" transform="translate(0,0)"/>
<path d="" fill="#1D5783" transform="translate(0,0)"/>
<path d="" fill="#1E5983" transform="translate(0,0)"/>
<path d="" fill="#205884" transform="translate(0,0)"/>
<path d="" fill="#26567F" transform="translate(0,0)"/>
</svg>
