<?xml version="1.0" encoding="UTF-8"?>
<svg version="1.1" xmlns="http://www.w3.org/2000/svg" width="1024" height="1024">
<path d="M0 0 C0.98234619 0.04439209 1.96469238 0.08878418 2.97680664 0.13452148 C11.59345684 0.53251434 20.203876 1.0194056 28.8125 1.5625 C28.8125 2.2225 28.8125 2.8825 28.8125 3.5625 C29.5972168 3.59770752 30.38193359 3.63291504 31.19042969 3.66918945 C39.46263744 4.15661942 47.07781988 5.57898085 55.0625 7.75 C56.24634277 8.06678711 57.43018555 8.38357422 58.64990234 8.70996094 C92.21494016 17.84698284 123.69002878 33.10979366 151.8125 53.5625 C152.43479492 54.01367188 153.05708984 54.46484375 153.69824219 54.9296875 C160.90276533 60.19836924 167.58945537 65.92807048 174.09375 72.02734375 C176.39828234 74.17625393 178.73603963 76.25891291 181.125 78.3125 C190.43479366 86.41048168 198.25374786 95.79663971 206.0625 105.3125 C206.97902344 106.42431641 206.97902344 106.42431641 207.9140625 107.55859375 C221.7623634 124.40030467 232.53378384 143.87844234 241.8125 163.5625 C242.31007813 164.6040625 242.80765625 165.645625 243.3203125 166.71875 C267.51288388 220.12748682 273.68764556 283.24258034 258.39624023 339.95117188 C257.66706186 342.76714611 257.66706186 342.76714611 257.8125 346.5625 C257.1525 346.5625 256.4925 346.5625 255.8125 346.5625 C255.7000293 347.11067383 255.58755859 347.65884766 255.47167969 348.22363281 C247.03490841 387.90520034 222.55020094 424.25401651 200.26855469 457.39453125 C197.98233469 460.79856102 195.71048157 464.21212319 193.4375 467.625 C192.43622532 469.12632036 191.43492127 470.62762113 190.43359375 472.12890625 C188.04127404 475.71704139 185.65187498 479.30710497 183.26394653 482.89816284 C172.73212044 498.73460637 162.14861303 514.53395514 151.47857666 530.27764893 C143.45698231 542.11428039 135.4940866 553.98781044 127.58300781 565.89868164 C124.33176202 570.79034503 121.07147625 575.67598504 117.8125 580.5625 C116.94006928 581.87107049 116.06766766 583.17966038 115.1953125 584.48828125 C111.875 589.46875 108.5546875 594.44921875 105.234375 599.4296875 C104.81269043 600.06221436 104.39100586 600.69474121 103.95654297 601.34643555 C1..."/>
<!-- Truncated content for brevity in this copy. Use the original Logo.svg for full fidelity if needed. -->
</svg>
